<?xml version="1.0" standalone="no"?>
<!DOCTYPE svg PUBLIC "-//W3C//DTD SVG 1.1//EN" "http://www.w3.org/Graphics/SVG/1.1/DTD/svg11.dtd">
<svg>
    <metadata>
        Created by FontForge 20090622 at Mon Apr 24 10:17:11 2017
        By deploy user
        Copyright (c) Andrew Paglinawan, 2008. All rights reserved.
    </metadata>
    <defs>
        <font id="QuicksandBold-Regular" horiz-adv-x="613">
            <font-face font-family="Quicksand Bold" font-weight="700" font-stretch="normal" units-per-em="1000" panose-1="0 0 0 0 0 0 0 0 0 0" ascent="800" descent="-200" x-height="488" cap-height="700" bbox="-24 -188 1097 950" underline-thickness="50" underline-position="-50" unicode-range="U+0020-U+2122" />
            <missing-glyph horiz-adv-x="500" />
            <glyph glyph-name=".notdef" horiz-adv-x="500" />
            <glyph glyph-name=".notdef" horiz-adv-x="500" />
            <glyph glyph-name=".null" horiz-adv-x="0" />
            <glyph glyph-name="nonmarkingreturn" horiz-adv-x="333" />
            <glyph glyph-name="space" unicode=" " horiz-adv-x="300" />
            <glyph glyph-name="space" unicode="&#xa0;" horiz-adv-x="300" />
            <glyph glyph-name="exclam" unicode="!" horiz-adv-x="252" d="M148 186q-23 0 -39 16t-16 39v404q0 23 16.5 39t38.5 16t38 -16t16 -39v-404q0 -23 -15.5 -39t-38.5 -16zM202 55q0 -23 -15.5 -39t-38.5 -16t-39 16t-16 39v20q0 23 16.5 39t38.5 16t38 -16t16 -39v-20z" />
            <glyph glyph-name="quotedbl" unicode="&#x22;" horiz-adv-x="410" d="M289 433l17 214q2 24 17.5 40t39.5 16h40q14 0 23 -9t9 -24q0 -6 -4 -22l-73 -222q-11 -31 -36 -31q-15 0 -24.5 10.5t-8.5 27.5zM69 433l18 214q2 24 17.5 40t39.5 16h39q15 0 24 -9t9 -24q0 -6 -4 -22l-73 -222q-11 -31 -36 -31q-15 0 -25 10.5t-9 27.5z" />
            <glyph glyph-name="numbersign" unicode="#" horiz-adv-x="700" d="M125 56l18 105h-46q-22 0 -37 15t-15 37q0 21 15 36.5t37 15.5h64l30 174h-58q-21 0 -36.5 15.5t-15.5 36.5t15.5 36.5t36.5 15.5h76l20 119q3 19 17.5 31t34.5 12q24 0 39.5 -18.5t12.5 -42.5l-18 -101h157l20 119q3 19 18 31t35 12q24 0 39.5 -19t11.5 -42l-17 -101h46
q21 0 36.5 -15t15.5 -37q0 -21 -15.5 -36.5t-36.5 -15.5h-64l-30 -174h57q22 0 37 -15t15 -37q0 -21 -15 -36.5t-37 -15.5h-75l-21 -123q-3 -19 -17.5 -31t-34.5 -12q-24 0 -40 18.5t-12 42.5l19 105h-157l-21 -123q-3 -18 -17.5 -30.5t-35.5 -12.5q-24 0 -39.5 18t-11.5 43
zM268 265h156l30 174h-156z" />
            <glyph glyph-name="dollar" unicode="$" horiz-adv-x="632" d="M293 720q0 18 13 30.5t31 12.5t30.5 -12.5t12.5 -30.5v-22q83 -10 155 -55q30 -17 30 -48q0 -23 -16.5 -39t-39.5 -16q-15 0 -30 9q-54 33 -103 44v-192q114 -29 165.5 -77.5t51.5 -128.5q0 -81 -58 -133.5t-155 -61.5v-60q0 -18 -12.5 -30.5t-30.5 -12.5t-31 12.5
t-13 30.5v62q-111 12 -205 78q-27 17 -27 48q0 23 16 39t39 16q19 0 33 -11q74 -54 148 -67v197q-112 29 -163 76t-51 130q0 80 58 131.5t152 59.5v21zM475 188q0 34 -21.5 56t-77.5 39v-182q48 5 73.5 28t25.5 59zM201 515q0 -33 20 -54t76 -39v177q-47 -4 -71.5 -27
t-24.5 -57z" />
            <glyph glyph-name="ampersand" unicode="&#x26;" horiz-adv-x="696" d="M578 405q5 -16 5 -39q1 -28 -11 -54.5t-32 -41.5q-5 -2 -11 -6q1 -8 1 -24q0 -100 -70.5 -170t-170.5 -70t-170 70t-70 170q0 106 78 176q-28 45 -28 98q0 77 54.5 131.5t131.5 54.5t131.5 -54.5t54.5 -131.5q0 -23 -16 -39t-39 -16t-39.5 16t-16.5 39q0 32 -22 53.5
t-53 21.5t-53 -22t-22 -53q0 -39 32 -61q17 -14 21.5 -34.5t-6.5 -39.5h-1v-1q-1 -2 -1 -3l-11 -11q-2 -2 -3 -2q-1 -1 -3 -2q-1 0 -2.5 -1t-2.5 -2q-33 -16 -53 -47.5t-20 -69.5q0 -54 37.5 -91.5t91.5 -37.5t92 37.5t38 91.5v6q-61 -1 -76 -19q-8 -8 -8 -22q0 -4 1 -9v-2
q6 -22 -5 -42t-33 -27q-8 -2 -15 -2q-42 0 -53 40q-6 9 -6 42q-2 60 41 101q53 51 156 51q22 0 33 -1h4q7 0 11 1q2 1 3 2v7q0 8 -1 15q-6 22 6 41.5t35 24.5t42.5 -7.5t23.5 -34.5z" />
            <glyph glyph-name="quotesingle" unicode="'" horiz-adv-x="230" d="M69 433l18 214q2 24 17.5 40t39.5 16h39q15 0 24.5 -9t9.5 -24q0 -6 -4 -22l-73 -222q-11 -31 -37 -31q-15 0 -25 10.5t-9 27.5z" />
            <glyph glyph-name="parenleft" unicode="(" horiz-adv-x="430" d="M191 -55q-45 35 -73 96q-47 104 -47 265q0 120 25 206q31 104 95 154q51 40 119 40q26 0 44.5 -18.5t18.5 -44.5t-18.5 -45t-44.5 -19q-25 0 -42 -13q-19 -14 -35 -49q-37 -75 -35 -211q-2 -100 20 -171q19 -66 50 -89q17 -13 42 -14v0q26 0 44.5 -18.5t18.5 -44.5
t-18.5 -44.5t-44.5 -18.5h-2q-67 0 -117 39z" />
            <glyph glyph-name="parenright" unicode=")" horiz-adv-x="430" d="M242 -55q-50 -39 -117 -39h-2q-26 0 -44.5 18.5t-18.5 44.5t18.5 44.5t44.5 18.5v0q25 1 42 14q31 23 50 89q22 71 20 171q2 136 -35 211q-16 35 -35 49q-17 13 -42 13q-26 0 -44.5 19t-18.5 45t18.5 44.5t44.5 18.5q68 0 119 -40q64 -50 95 -154q25 -86 25 -206
q0 -161 -47 -265q-28 -61 -73 -96z" />
            <glyph glyph-name="asterisk" unicode="*" horiz-adv-x="430" d="M199 414l10 90l-75 -55q-15 -10 -25 -10q-13 0 -23 10t-10 24q0 21 23 31l88 38l-88 39q-23 10 -23 31q0 13 10 23t24 10q11 0 24 -10l75 -55l-10 89q-2 16 7 27t24 11t24 -10.5t7 -26.5l-10 -90l75 55q13 10 25 10q13 0 23 -9.5t10 -23.5q0 -21 -23 -31l-88 -39l88 -38
q23 -10 23 -32q0 -13 -10 -23t-24 -10q-9 0 -24 10l-75 55l10 -89q2 -16 -7 -27t-24 -11t-24 10.5t-7 26.5z" />
            <glyph glyph-name="plus" unicode="+" horiz-adv-x="620" d="M261 158v139h-142q-23 0 -39 16t-16 39q0 22 16 38.5t39 16.5h142v139q0 24 16.5 40.5t40.5 16.5q23 0 40 -16.5t17 -40.5v-139h142q23 0 39 -16.5t16 -38.5q0 -23 -16 -39t-39 -16h-142v-139q0 -24 -17 -40.5t-40 -16.5q-24 0 -40.5 16.5t-16.5 40.5z" />
            <glyph glyph-name="comma" unicode="," horiz-adv-x="230" d="M54 -117q0 22 23 27q71 23 68 90q-24 7 -40.5 25t-16.5 43v8q0 29 19 48t49 19q34 0 53 -23.5t19 -64.5v-11q0 -95 -49 -146q-45 -43 -94 -43q-31 0 -31 28z" />
            <glyph glyph-name="hyphen" unicode="-" horiz-adv-x="408" d="M125 247q-24 0 -41.5 17.5t-17.5 41.5q0 25 17.5 42.5t41.5 17.5h188q24 0 41.5 -17.5t17.5 -42.5q0 -24 -17.5 -41.5t-41.5 -17.5h-188z" />
            <glyph glyph-name="period" unicode="." horiz-adv-x="230" d="M82 67q0 31 21.5 53t52.5 22t53 -22t22 -53t-22 -52.5t-53 -21.5t-52.5 21.5t-21.5 52.5z" />
            <glyph glyph-name="slash" unicode="/" horiz-adv-x="422" d="M115 4q-22 8 -30.5 29.5t0.5 42.5l245 583q9 21 30 29.5t43 -0.5q20 -8 28.5 -29.5t-0.5 -41.5l-245 -584q-14 -33 -51 -33q-12 0 -20 4z" />
            <glyph glyph-name="zero" unicode="0" horiz-adv-x="710" d="M133 111q-66 97 -68 239q2 142 68 239q73 111 186 111q56 0 104 -30.5t81 -80.5q67 -100 67 -239t-67 -239q-33 -50 -81.5 -80.5t-103.5 -30.5q-112 0 -186 111zM412 173q48 72 48 177q0 104 -48 178q-43 63 -93 61q-50 2 -95 -61q-48 -74 -48 -178q0 -105 48 -177
q43 -62 95 -62q51 0 93 62z" />
            <glyph glyph-name="one" unicode="1" horiz-adv-x="335" d="M273 648v-3v-590q0 -23 -16.5 -39t-39.5 -16t-39 16t-16 39v492l-40 -23q-12 -8 -28 -8q-31 0 -47 28q-13 19 -7.5 41.5t25.5 33.5l123 73l2 1l2 1q1 0 2.5 1.5t2.5 1.5t3 0.5t3 0.5q1 1 4 1q2 1 7 1h3h1h7q1 -1 4 -1q2 0 6 -2q3 0 4 -1q5 -3 6 -3q2 -2 4 -3q1 -1 4 -3
l4 -4q2 -2 3 -4l4 -4l1 -2q0 -1 1 -3q2 -4 2 -5t0.5 -2.5t1.5 -2.5v-3l1 -2q0 -5 2 -7z" />
            <glyph glyph-name="two" unicode="2" horiz-adv-x="590" d="M462 111q23 0 39 -16.5t16 -39.5t-16 -39t-39 -16h-354h-1h-1q-26 0 -41 18q-16 17 -15 39.5t18 38.5l296 268q42 38 42 96q0 50 -33 87q-38 42 -96 42q-49 0 -87 -33l-31 -28q-17 -16 -39.5 -14.5t-38.5 18.5q-15 17 -14 39.5t18 38.5l31 28q66 62 161 62q107 0 178 -79
q62 -66 62 -161q0 -107 -79 -178l-189 -171h213z" />
            <glyph glyph-name="three" unicode="3" horiz-adv-x="610" d="M374 474q42 -19 70 -49q73 -72 73 -175t-73 -176t-176 -73q-102 0 -175 73q-17 16 -17 40t17 40t40 16t40 -16q39 -39 95 -39t96 39q40 40 40 96t-40 95q-37 38 -95 40q-25 -2 -41 18q-1 0 -1 1q-17 16 -17.5 39.5t15.5 40.5l102 104h-162q-23 0 -39.5 16.5t-16.5 40.5
q0 23 16.5 39.5t39.5 16.5h295q24 0 40.5 -16.5t16.5 -39.5q0 -13 -7 -27q-6 -10 -10 -14z" />
            <glyph glyph-name="four" unicode="4" horiz-adv-x="664" d="M544 241q23 0 39.5 -16t16.5 -39t-16.5 -39t-39.5 -16h-10v-76q0 -23 -16 -39t-39 -16t-39 16t-16 39v76h-313h-1h-1q-21 0 -34 12q-19 14 -21 36.5t12 40.5l370 460l2 2q2 2 3 4q3 1 5 3q1 1 4 3q4 2 6 2q2 3 4 3q1 1 3 1q2 1 3 1q3 0 4 1h7h2h2h6q2 -1 5 -1
q1 -1 3 -1.5t3 -0.5l2 -1h2q1 -1 3 -2l2 -2q1 0 2.5 -1t2.5 -2q1 0 1 -1q3 0 3 -2l4 -4l1 -2q1 -2 2 -2q2 -2 4 -5q0 -2 2 -4q1 -1 1.5 -3t0.5 -3t0.5 -2t0.5 -2q1 -2 1 -6q0 -1 0.5 -2.5t0.5 -2.5v-3v-404h10zM424 241v247l-199 -247h199z" />
            <glyph glyph-name="five" unicode="5" horiz-adv-x="605" d="M259 497q103 0 175 -73q73 -72 73 -176q0 -102 -73 -175q-72 -73 -175 -73h-2q-104 0 -174 73q-17 16 -17 39.5t17 40.5q16 17 39.5 17t40.5 -17q39 -40 96 -40q56 0 95 40q40 40 40 95q0 57 -40 96q-38 39 -95 39q-58 0 -96 -39q-17 -16 -40 -16t-40 16q-2 2 -5.5 6.5
t-5.5 6.5q0 3 -1 3q0 3 -2 5q0 2 -0.5 4t-0.5 3v1l-1 1q-2 9 0 17l30 259q5 26 25 40l4 2l1 1q1 1 2 1q12 6 26 6h295q24 0 40.5 -16.5t16.5 -40.5q0 -23 -16.5 -39.5t-40.5 -16.5h-246l-12 -99q33 9 67 9z" />
            <glyph glyph-name="six" unicode="6" horiz-adv-x="642" d="M308 484q101 0 172 -71t71 -171t-71 -171t-172 -71q-94 0 -163 62.5t-78 154.5q0 1 -1 2q-2 38 -2 57q0 113 35 205q43 114 129 171q66 44 150 47q23 1 39.5 -14.5t18.5 -38.5q1 -22 -15 -39t-39 -19q-51 -1 -94 -28q-38 -26 -63 -70q-5 -8 -13 -26q45 20 96 20zM308 111
q55 0 93.5 38t38.5 93q0 54 -38.5 93t-93.5 39q-54 0 -92.5 -39t-38.5 -93q0 -55 38 -93t93 -38z" />
            <glyph glyph-name="seven" unicode="7" horiz-adv-x="587" d="M516 634q-1 -4 -3 -10l-250 -591q-13 -33 -51 -33q-12 0 -21 4q-21 10 -29.5 31t-0.5 41l216 513h-258q-22 0 -38.5 16.5t-16.5 39.5t16 39t39 16h343v0q6 0 10 -1t21 -8l3 -3q3 -1 4 -4l4 -4q1 -2 3 -4t2 -5q1 -2 4 -5l1 -2v-3t1 -2.5t1 -2.5q2 -11 0 -22z" />
            <glyph glyph-name="eight" unicode="8" horiz-adv-x="630" d="M426 437q49 -33 78 -85.5t29 -113.5q0 -98 -70 -168t-168 -70q-99 0 -169.5 70t-70.5 168q0 61 28.5 113.5t78.5 85.5q-33 42 -33 99q0 68 48.5 116t117.5 48q67 0 115.5 -48t48.5 -116q0 -57 -33 -99zM295 591q-24 0 -40.5 -16t-16.5 -39t16.5 -40t40.5 -17
q22 0 38.5 17t16.5 40q0 22 -16 38.5t-39 16.5zM295 109q53 0 91 38t38 91t-38 91.5t-91 38.5q-54 0 -92 -38t-39 -92q1 -53 39 -91t92 -38z" />
            <glyph glyph-name="nine" unicode="9" horiz-adv-x="642" d="M309 216q-101 0 -172 71t-71 171t71 171t172 71q94 0 163 -62.5t78 -154.5q0 -1 1 -2q2 -38 2 -57q0 -113 -35 -205q-43 -114 -129 -171q-66 -44 -150 -47q-23 -1 -39.5 14.5t-18.5 38.5q-1 22 15 39t39 19q51 1 94 28q38 26 63 70q5 8 13 26q-45 -20 -96 -20zM309 589
q-55 0 -93.5 -38t-38.5 -93q0 -54 38.5 -93t93.5 -39q54 0 92.5 39t38.5 93q0 55 -38 93t-93 38z" />
            <glyph glyph-name="colon" unicode=":" horiz-adv-x="240" d="M87 67q0 31 21.5 53t52.5 22t53 -22t22 -53t-22 -52.5t-53 -21.5t-52.5 21.5t-21.5 52.5zM87 465q0 31 21.5 53t52.5 22t53 -22t22 -53t-22 -52.5t-53 -21.5t-52.5 21.5t-21.5 52.5z" />
            <glyph glyph-name="semicolon" unicode=";" horiz-adv-x="240" d="M96 457q0 36 25 60.5t62 24.5t62 -24.5t25 -60.5v-2q0 -36 -25 -60.5t-62 -24.5t-62 24.5t-25 60.5v2zM59 -128q0 26 30 33q38 9 58.5 34t18.5 61q-29 7 -49.5 29.5t-20.5 52.5v2q0 36 23 59t60 23q42 0 65.5 -30t23.5 -82v-4q0 -105 -59 -164q-48 -48 -112 -48
q-38 0 -38 34z" />
            <glyph glyph-name="semicolon" unicode="&#x37e;" horiz-adv-x="240" d="M96 457q0 36 25 60.5t62 24.5t62 -24.5t25 -60.5v-2q0 -36 -25 -60.5t-62 -24.5t-62 24.5t-25 60.5v2zM59 -128q0 26 30 33q38 9 58.5 34t18.5 61q-29 7 -49.5 29.5t-20.5 52.5v2q0 36 23 59t60 23q42 0 65.5 -30t23.5 -82v-4q0 -105 -59 -164q-48 -48 -112 -48
q-38 0 -38 34z" />
            <glyph glyph-name="less" unicode="&#x3c;" horiz-adv-x="620" d="M213 347l237 -239q19 -20 19 -45.5t-19 -44.5q-20 -18 -44 -18q-26 0 -46 18l-281 285q-3 1 -5 6l-3 2q-1 1 -3 8q-3 1 -3 4q0 1 -0.5 3t-1.5 3q0 2 -1 3l-1 2v7q0 1 -0.5 2.5t-0.5 3.5q0 1 0.5 3l0.5 2v7q0 1 1 3l1 1q1 1 1 4t1 4q0 1 0.5 1t0.5 1q1 1 2.5 4.5t2.5 4.5
q0 2 2 2q2 4 6 7l281 285q19 18 45.5 18t44.5 -18q19 -19 19 -45t-19 -45z" />
            <glyph glyph-name="equal" unicode="=" horiz-adv-x="620" d="M115 259q-15 0 -25.5 10.5t-10.5 25.5t10.5 25.5t25.5 10.5h186q15 0 25 -10.5t10 -25.5t-10 -25.5t-25 -10.5h-186zM115 372q-15 0 -25.5 10t-10.5 25q0 14 10.5 24.5t25.5 10.5h186q15 0 25 -10.5t10 -24.5q0 -15 -10 -25t-25 -10h-186z" />
            <glyph glyph-name="greater" unicode="&#x3e;" horiz-adv-x="620" d="M498 320q0 -1 -2 -4t-3 -5q0 -1 -1 -1q-1 -1 -2 -2.5t-2.5 -2.5t-2.5 -2l-281 -285q-18 -18 -45 -18q-25 0 -45 18q-19 19 -19 44.5t19 45.5l237 239l-237 239q-19 19 -19 45t19 45q18 18 44.5 18t45.5 -18l281 -285q1 -1 2.5 -2t2.5 -2.5t2 -2.5l1 -2q1 -2 2.5 -4.5
t2.5 -4.5q0 -1 0.5 -1t0.5 -1t0.5 -2.5l1 -3t1.5 -3.5v-1q1 -1 1 -2v-7l1 -2v-3t-0.5 -3l-0.5 -2v-8l-1 -1v-1q-1 -2 -2 -5t-1 -4l-1 -1v-2z" />
            <glyph glyph-name="question" unicode="?" horiz-adv-x="534" d="M232 116q21 0 35 -14.5t14 -34.5v-18q0 -21 -14 -35t-35 -14q-20 0 -34.5 14t-14.5 35v18q0 20 14.5 34.5t34.5 14.5zM443 490q0 -74 -46 -130.5t-116 -73.5v-65q0 -21 -14 -35t-35 -14q-20 0 -34.5 14t-14.5 35v104q0 1 0.5 1t0.5 1q-1 1 -1 2q0 19 14.5 34t34.5 15
q47 0 80.5 33t33.5 79q0 47 -33.5 79.5t-80.5 32.5q-64 0 -96 -55q-11 -18 -30.5 -23t-37.5 5q-17 11 -22 30t5 37q27 47 75.5 75.5t105.5 28.5q87 0 149 -61.5t62 -148.5z" />
            <glyph glyph-name="at" unicode="@" horiz-adv-x="980" d="M402 700q145 0 247.5 -102.5t102.5 -246.5q0 -89 -39 -161v-1q-1 -1 -4 -6l-8.5 -13.5t-12.5 -15.5q-38 -38 -78 -48q-14 -3 -26 -3q-23 -1 -44 10t-32 27q-11 14 -16 30q-42 -22 -90 -22q-83 0 -138 60t-55 143t55 141q56 61 138 61q81 0 139 -61q55 -58 55 -141v-8v-4
v-119q1 1 3 2.5t4 3.5q10 10 13 16q25 50 25 109q0 99 -69.5 168.5t-169.5 69.5q-98 0 -168 -70t-70 -168q0 -99 70 -169t168 -70q32 0 60 6q22 6 42 -5.5t25 -33.5q5 -23 -6.5 -42.5t-33.5 -25.5q-44 -11 -87 -11q-145 1 -247 103.5t-102 247.5q0 144 102 246.5t247 102.5z
M460 284q25 28 25 67q0 38 -25 66q-27 25 -58 25q-32 0 -57 -25q-25 -27 -25 -66q0 -40 25 -67q23 -25 57 -25q33 0 58 25z" />
            <glyph glyph-name="A" unicode="A" horiz-adv-x="646" d="M510 35l-49 130h-243l-49 -130q-14 -35 -52 -35q-10 0 -19 3q-22 8 -31.5 29t-1.5 43l221 589q7 16 21.5 26t31.5 9q38 2 53 -35l221 -589q8 -22 -1.5 -43t-31.5 -29q-8 -3 -19 -3q-38 0 -51 35zM258 275h162l-81 215z" />
            <glyph glyph-name="B" unicode="B" horiz-adv-x="594" d="M159 0q-23 0 -39 16t-16 39v590q0 23 16 39t39 16h3h1h138q79 0 134.5 -55.5t55.5 -134.5q0 -63 -38 -114q46 -29 73.5 -77t27.5 -104q0 -89 -62.5 -152t-151.5 -63h-177l-1 1q-1 0 -2 -1h-1zM215 589v-160h86q33 0 56 24t23 57t-23 56t-56 23h-86zM215 318v-207h125
q43 1 73 31t30 73t-30 72.5t-73 30.5h-125z" />
            <glyph glyph-name="C" unicode="C" horiz-adv-x="771" d="M440 0q-150 0 -258 105.5t-109 254.5q1 148 109 253.5t258 106.5q131 0 231 -78q18 -15 21 -38t-11 -42q-15 -19 -39 -22t-41 11q-67 55 -161 55q-103 0 -180 -72q-73 -75 -73 -174q0 -103 73 -174q77 -72 180 -72q92 0 161 55q17 13 41 10t39 -21q14 -19 11 -42.5
t-21 -37.5q-100 -78 -231 -78z" />
            <glyph glyph-name="D" unicode="D" horiz-adv-x="719" d="M159 0q-23 0 -39 16t-16 39v590q0 23 16 39t39 16v0h118q145 0 247 -102.5t102 -246.5q0 -146 -102 -248.5t-247 -102.5h-118v0zM215 589v-478h62q99 1 168.5 70.5t69.5 169.5q0 98 -69.5 168t-168.5 70h-62z" />
            <glyph glyph-name="E" unicode="E" horiz-adv-x="593" d="M159 0q-23 0 -39 16t-16 39v590q0 23 16 39t39 16h1h2h324q22 0 38.5 -16t16.5 -39t-16.5 -39.5t-38.5 -16.5h-271v-183h233q22 0 38.5 -16.5t16.5 -38.5q0 -23 -16 -39.5t-39 -16.5h-233v-184h271q22 0 38.5 -16.5t16.5 -39.5q0 -22 -16.5 -38.5t-38.5 -16.5h-324l-2 1z
" />
            <glyph glyph-name="F" unicode="F" horiz-adv-x="605" d="M159 0q-23 0 -39 16t-16 39v590q0 23 16 39t39 16h1h2h324q22 0 38.5 -16.5t16.5 -38.5q0 -23 -16.5 -39.5t-38.5 -16.5h-271v-183h233q22 0 38.5 -16.5t16.5 -38.5q0 -23 -16 -39.5t-39 -16.5h-233v-240q0 -23 -16.5 -39t-39.5 -16z" />
            <glyph glyph-name="G" unicode="G" horiz-adv-x="814" d="M442 0q-153 0 -261 104.5t-108 254.5t108 255.5t261 105.5q129 0 228 -78q19 -14 22 -38t-11 -43q-14 -18 -38 -21t-43 12q-70 54 -158 54q-109 0 -180 -73q-75 -72 -75 -174q0 -100 75 -172q71 -73 180 -73q71 0 137 38v137h-143q-23 0 -40 17t-17 40q0 24 16.5 40
t40.5 16h197h1h1q24 0 41 -16t17 -40v-221q0 -4 -1.5 -10t-1.5 -7t-1 -2.5t-1 -2.5v-1q-5 -14 -19 -24q-100 -78 -227 -78z" />
            <glyph glyph-name="H" unicode="H" horiz-adv-x="709" d="M159 0q-23 0 -39 16t-16 39v590q0 23 16 39t39 16t39.5 -16t16.5 -39v-240h259v240q0 23 16 39t39 16t39.5 -16t16.5 -39v-590q0 -23 -16.5 -39t-39.5 -16t-39 16t-16 39v240h-259v-240q0 -23 -16.5 -39t-39.5 -16z" />
            <glyph glyph-name="I" unicode="I" horiz-adv-x="305" d="M111 55v590q0 23 16 39t39 16t39.5 -16t16.5 -39v-590q0 -23 -16.5 -39t-39.5 -16t-39 16t-16 39z" />
            <glyph glyph-name="J" unicode="J" horiz-adv-x="594" d="M87 241q22 7 42.5 -3t27.5 -32q14 -42 50 -68.5t81 -26.5q57 0 97.5 40.5t40.5 96.5v397q0 23 16.5 39t39.5 16t39 -16t16 -39v-397q0 -103 -73 -175.5t-176 -72.5q-82 0 -147 48t-89 124q-7 22 3.5 42.5t31.5 26.5z" />
            <glyph glyph-name="K" unicode="K" horiz-adv-x="715" d="M159 0q-23 0 -39 16t-16 39v585q0 22 16 38.5t39 16.5t39 -16.5t16 -38.5v-287l324 325q16 16 39 16t39 -16t16 -39t-16 -39l-220 -219l222 -291q15 -17 12.5 -40t-20.5 -37q-14 -13 -35 -13q-24 0 -41 20l-216 283l-104 -106v-142q0 -23 -16 -39t-39 -16z" />
            <glyph glyph-name="L" unicode="L" horiz-adv-x="563" d="M159 0q-23 0 -39 16t-16 39v590q0 23 16 39t39 16t39.5 -16t16.5 -39v-534h271q22 0 38.5 -16.5t16.5 -39.5q0 -22 -16.5 -38.5t-38.5 -16.5h-324h-2h-1z" />
            <glyph glyph-name="M" unicode="M" horiz-adv-x="844" d="M650 700q23 -1 39.5 -17t16.5 -38v-590q0 -22 -16.5 -38.5t-39.5 -16.5t-39 16t-16 39v421l-144 -200q-17 -23 -45 -23h-1h-1q-29 0 -46 23l-143 200v-421q0 -23 -16.5 -39t-39.5 -16t-39 16t-16 39v590q0 23 16 39t39 16h3q29 0 44 -23l199 -276l199 276q17 23 45 23h1
v0z" />
            <glyph glyph-name="N" unicode="N" horiz-adv-x="771" d="M214 470v-415q0 -22 -16 -38.5t-38 -16.5q-23 0 -39 16t-16 39v581v1q-2 29 22 46q19 13 41 9.5t35 -21.5l323 -447v412q0 22 16 38t38 16t38.5 -16t16.5 -38v-581q0 -23 -16.5 -39t-38.5 -16q-24 0 -41 20q-4 4 -5 6z" />
            <glyph glyph-name="O" unicode="O" horiz-adv-x="850" d="M417 720q68 0 131 -28.5t108 -78.5q101 -108 101 -253q0 -147 -101 -253q-45 -50 -108 -78.5t-131 -28.5q-71 0 -134.5 28.5t-110.5 78.5q-99 104 -99 253q0 148 99 253q99 107 245 107zM575 186q68 71 68 174q0 102 -68 175q-66 71 -158 71q-96 0 -162 -71
q-68 -71 -68 -175t68 -174q67 -72 162 -72q91 0 158 72z" />
            <glyph glyph-name="P" unicode="P" horiz-adv-x="583" d="M553 485q0 -88 -63 -150.5t-152 -62.5h-123v-217q0 -23 -16.5 -39t-39.5 -16t-39 16t-16 39v590q0 23 16 39t39 16h1h178q89 0 152 -63t63 -152zM215 589v-206h123q43 0 73 30t31 72q-1 44 -31 74t-73 30h-123z" />
            <glyph glyph-name="Q" unicode="Q" horiz-adv-x="844" d="M821 -16q15 -19 12 -43t-23 -40q-82 -63 -165 -63h-3q-82 0 -183 60q-27 15 -61 15q-21 0 -43.5 -6.5t-27.5 -10.5q-32 -18 -58 3l-6 2q-1 1 -2 1q-12 17 -14 23q-11 23 -3 44.5t30 32.5l3 2q-61 29 -111 76q-100 111 -100 261q0 148 100 258q103 111 250 111
q150 0 248 -111q102 -107 102 -258q0 -153 -102 -261q-47 -49 -111 -79l-23 -9q66 -36 112 -36q48 0 98 38q19 15 42.5 12t38.5 -22zM184 341q0 -106 69 -180q66 -72 163 -72q95 0 165 72q69 74 69 180q0 107 -69 178q-70 73 -165 73q-98 0 -163 -73q-69 -71 -69 -178z" />
            <glyph glyph-name="R" unicode="R" horiz-adv-x="625" d="M532 117q26 -8 35 -34q7 -22 -3 -42t-32 -28q-12 -3 -22 -3h-1q-22 0 -39 11q-19 11 -32 35q-21 44 -21 120q-1 26 -12 43q-8 14 -30 29q-26 17 -56 24h-118v-217q0 -23 -16.5 -39t-39.5 -16t-39 16t-16 39v590q0 23 16 39t39 16h1h178q89 0 151.5 -63t62.5 -152
q0 -99 -78 -164q21 -16 35 -37q33 -48 33 -108q-1 -33 4 -59zM324 383q43 0 73 30t30 72q0 43 -30 73.5t-73 30.5h-123v-206h123z" />
            <glyph glyph-name="S" unicode="S" horiz-adv-x="667" d="M90 101q-16 13 -18.5 35t10.5 38t35 18.5t38 -11.5q96 -78 191 -77q75 0 125 37q43 32 43 72q0 17 -9 32q-10 17 -30 30q-46 30 -137 47h-2q-78 15 -129 39q-63 30 -93 78q-23 37 -23 82q0 87 80 146q73 53 173 53q44 0 90 -15t68.5 -28t59.5 -37q17 -12 21.5 -33
t-7.5 -38q-11 -18 -32 -22.5t-39 7.5q-47 32 -83.5 48t-77.5 16q-66 0 -112 -34q-38 -28 -38 -63q0 -17 7 -28q8 -13 27 -26q41 -28 125 -44h2q84 -17 138 -42q69 -34 100 -83q24 -38 24 -85q0 -93 -86 -155q-78 -57 -185 -57q-131 1 -256 100z" />
            <glyph glyph-name="T" unicode="T" horiz-adv-x="648" d="M587 645q0 -23 -16.5 -39.5t-38.5 -16.5h-159v-534q0 -23 -16 -39t-39 -16t-39 16t-16 39v534h-158q-23 0 -39 16.5t-16 39.5t16 39t39 16h427q23 0 39 -16t16 -39z" />
            <glyph glyph-name="U" unicode="U" horiz-adv-x="814" d="M683 289q0 -119 -84.5 -204t-204.5 -85t-204.5 84.5t-84.5 204.5v356q0 23 16 39t39 16t39.5 -16t16.5 -39v-356q0 -73 52 -125.5t126 -52.5t126 52t52 126v356q0 23 16.5 39t39.5 16t39 -16t16 -39v-356z" />
            <glyph glyph-name="V" unicode="V" horiz-adv-x="750" d="M333 10h-1q-1 1 -7 5l-1 1v2q-4 4 -5 6q-1 0 -1 1q-3 6 -5 8l-245 584q-9 20 -0.5 41.5t30.5 29.5q20 9 41 0.5t30 -29.5l195 -463l195 463q9 21 30.5 29.5t41.5 -0.5q21 -8 29.5 -29.5t0.5 -41.5l-247 -584q0 -1 -1 -2.5t-1.5 -3t-1.5 -2.5q0 -1 -1 -1l-3 -3t-2 -3
q-1 -2 -2 -3t-3 -2.5t-3 -2.5l-2 -1q-1 0 -3.5 -2t-4.5 -3q-1 0 -2 -1q-2 0 -8 -2h-2q-4 -1 -10 -1q-7 0 -10 1h-2q-4 2 -8 2l-1 1h-1z" />
            <glyph glyph-name="W" unicode="W" horiz-adv-x="1102" d="M998 688q20 -8 28.5 -29.5t-0.5 -41.5l-245 -583q-2 -6 -5 -9l-1 -1q-1 -2 -5 -6v-2l-1 -1q-4 -2 -7 -5h-1l-3 -2q-4 -3 -6 -4h-1q-1 0 -1 -1q-2 0 -8 -2h-2q-3 -1 -10 -1q-6 0 -9 1h-3q-6 2 -7 2q-1 1 -2 1q-4 1 -9 6h-1q-1 1 -3.5 2.5t-3.5 2.5t-2 3q0 1 -2 3t-2 3
l-2 1q-2 1 -4 9l-131 310l-131 -310q-1 -3 -4 -9l-1 -1l-6 -6q0 -1 -1 -2v-1q-2 -1 -6 -5h-2q-1 -1 -4 -3t-4 -3h-1q-1 0 -1 -1q-4 0 -8 -2h-3q-3 -1 -9 -1v0q-7 0 -10 1h-3q-6 2 -7 2q-1 1 -2 1q-4 2 -9 6h-1q-1 1 -3 2.5t-4 2.5q-1 1 -2 3q-1 1 -2.5 3t-2.5 3v1
q-1 1 -2.5 4.5t-2.5 4.5l-246 583q-8 21 0.5 42t29.5 29q20 9 41.5 0.5t29.5 -29.5l196 -463l129 307q14 34 52 34q37 0 52 -34l129 -307l195 463q9 21 30 29.5t43 -0.5z" />
            <glyph glyph-name="X" unicode="X" horiz-adv-x="722" d="M593 681q18 -13 21.5 -35t-9.5 -41l-190 -258l190 -260q13 -18 9.5 -40.5t-21.5 -35.5q-16 -11 -32 -11q-27 0 -45 23l-168 231l-169 -231q-18 -23 -44 -23q-18 0 -32 11q-19 13 -22.5 35.5t9.5 40.5l190 260l-190 258q-13 19 -9.5 41t22.5 35q18 14 40.5 10.5
t35.5 -22.5l169 -230l168 230q14 19 36 22.5t41 -10.5z" />
            <glyph glyph-name="Y" unicode="Y" horiz-adv-x="604" d="M579 682q18 -13 21.5 -35.5t-9.5 -40.5l-205 -281v-270q0 -23 -16 -39t-39 -16q-22 0 -38.5 16t-16.5 39v270l-203 281q-14 18 -11 40t22 36t41 10.5t35 -22.5l171 -234l171 234q14 19 36.5 22.5t40.5 -10.5z" />
            <glyph glyph-name="Z" unicode="Z" horiz-adv-x="667" d="M603 614v-2l-368 -501h322q23 0 39.5 -16.5t16.5 -39.5t-16.5 -39t-39.5 -16h-431v0q-6 0 -10 1q-2 0 -3 1q-1 0 -3 0.5t-4 0.5l-3 3q-1 0 -5 2l-4 2v1q-1 0 -3 2q-3 3 -4 5q-2 1 -4 3l-2 2t-1 2t-1 3l-1 2q0 1 -1.5 2.5t-1.5 2.5q-1 1 -1 3t-1 3l-1 1v3q0 2 -0.5 4
t-0.5 3v3v1q0 5 1 7v5q1 1 1 2q1 2 1 3v2q1 2 1 3q3 2 3 4q1 1 3 5h1l367 502h-323q-23 0 -39 16.5t-16 39.5t16 39t39 16h431h1h7q1 0 2 -0.5t2 -0.5q2 0 3.5 -0.5t2.5 -0.5t2 -1t2 -1q2 0 5 -3q1 -1 2.5 -2t2.5 -1h1l3 -3l4 -4q1 -1 3 -4q3 -1 4 -4q2 -4 3 -5q0 -2 2 -4
q0 -2 1 -4v-2q2 -2 2 -5q1 -3 1 -6v-4v-7q-1 -2 -1 -4t-1 -3.5t-1 -2.5l-2 -6l-1 -1q-1 -1 -1 -2q-2 -4 -3 -5z" />
            <glyph glyph-name="bracketleft" unicode="[" horiz-adv-x="430" d="M98 -70v710q0 25 17 42.5t42 17.5h206q19 0 33.5 -14t14.5 -34q0 -19 -14 -33t-34 -14h-149v-640h149q20 0 34 -14t14 -33q0 -20 -14.5 -34t-33.5 -14h-206q-25 0 -42 17.5t-17 42.5z" />
            <glyph glyph-name="backslash" unicode="\" horiz-adv-x="448" d="M389 4q-8 -4 -20 -4q-37 0 -51 33l-245 584q-9 20 -0.5 41.5t28.5 29.5q22 9 43 0.5t30 -29.5l245 -583q9 -21 0.5 -42.5t-30.5 -29.5z" />
            <glyph glyph-name="bracketright" unicode="]" horiz-adv-x="430" d="M368 640v-710q0 -25 -17.5 -42.5t-42.5 -17.5h-206q-19 0 -33 14t-14 34t13.5 33.5t33.5 13.5h150v640h-150q-20 0 -33.5 13.5t-13.5 33.5t14 34t33 14h206q25 0 42.5 -17.5t17.5 -42.5z" />
            <glyph glyph-name="asciicircum" unicode="^" horiz-adv-x="500" d="M252 625l-72 -93q-20 -26 -35 -35t-37 -9q-28 0 -28 20q0 14 12 30l95 130q25 36 61 36h9q35 0 62 -36l95 -130q11 -17 11 -30q0 -20 -28 -20q-23 0 -38 9t-35 35z" />
            <glyph glyph-name="underscore" unicode="_" horiz-adv-x="600" d="M23 -160q-19 0 -33 14t-14 33t14 33t33 14h604q19 0 33 -14t14 -33t-14 -33t-33 -14h-604z" />
            <glyph glyph-name="grave" unicode="`" horiz-adv-x="500" d="M318 590q-42 0 -70 27l-68 64q-17 15 -17 30q0 14 23.5 26.5t48.5 12.5q30 0 48 -29l57 -88q9 -13 9 -22q0 -21 -31 -21z" />
            <glyph glyph-name="a" unicode="a" horiz-adv-x="619" d="M516 446v-197v0v-196q0 -22 -15.5 -37.5t-37.5 -15.5q-19 0 -33 12t-19 31q-61 -43 -133 -43q-100 0 -170 73q-68 73 -68 176q0 105 68 176q70 75 170 75q71 0 133 -44q5 19 19 31.5t33 12.5q22 0 37.5 -16t15.5 -38zM371 146q39 42 39 103q0 62 -39 103q-36 41 -93 41
q-58 0 -93 -41q-38 -40 -38 -103q0 -62 38 -103q36 -39 93 -39q56 0 93 39z" />
            <glyph glyph-name="b" unicode="b" horiz-adv-x="660" d="M93 54v195v1v396q0 22 16 38t38 16q23 0 39 -16t16 -38v-188q60 42 134 42q101 0 172 -74t71 -177q0 -102 -71 -175.5t-172 -73.5q-73 0 -136 43q-4 -18 -18.5 -30.5t-34.5 -12.5q-22 0 -38 16t-16 38zM242 350q-40 -40 -40 -101q0 -59 40 -99q39 -41 94 -41t94 41
q40 40 40 99q0 61 -40 101q-39 41 -94 41t-94 -41z" />
            <glyph glyph-name="c" unicode="c" horiz-adv-x="571" d="M312 0q-104 0 -179 73.5t-75 175.5q0 104 75 177t179 74q87 0 159 -55q17 -13 20 -35.5t-9 -38.5q-15 -18 -36.5 -21t-38.5 11q-44 32 -95 32q-60 0 -104 -43t-44 -101t43.5 -100.5t104.5 -42.5q51 0 95 32q16 13 38 10t37 -21q12 -16 9 -37.5t-20 -36.5
q-74 -53 -159 -53z" />
            <glyph glyph-name="d" unicode="d" horiz-adv-x="660" d="M546 249v-195q0 -22 -16 -38t-38 -16q-20 0 -34.5 12.5t-18.5 30.5q-63 -43 -136 -43q-101 0 -172 73.5t-71 175.5q0 103 71 177t172 74q74 0 134 -42v188q0 22 16 38t39 16q22 0 38 -16t16 -38v-396v-1zM397 350q-39 41 -94 41t-94 -41q-40 -40 -40 -101q0 -59 40 -99
q39 -41 94 -41t94 41q40 40 40 99q0 61 -40 101z" />
            <glyph glyph-name="e" unicode="e" horiz-adv-x="609" d="M302 0q-102 1 -172.5 74t-71.5 176q1 103 71.5 176.5t172.5 73.5q98 0 166.5 -65.5t74.5 -166.5v-5v0q0 -7 -1 -9q-2 -18 -16.5 -29t-35.5 -11h-318q9 -43 34 -66q35 -40 96 -45q64 -5 104 25q15 16 40 16t35 -13q12 -13 13.5 -30t-13.5 -35q-72 -66 -179 -66zM302 405
q-58 -3 -93 -36t-42 -70h283q-9 35 -48.5 68t-99.5 38z" />
            <glyph glyph-name="f" unicode="f" horiz-adv-x="362" d="M266 584q-1 0 -3 -4.5t-4 -17t-2 -29.5v-14h30q23 0 39 -16t16 -39q0 -22 -16 -38.5t-39 -16.5h-30v-353q0 -23 -16 -39t-39 -16t-39 16t-16 39v353h-26q-23 0 -39.5 16t-16.5 39t16.5 39t39.5 16h26v14q0 61 19 98q22 47 72 62q27 8 60 8q22 0 38.5 -16.5t16.5 -38.5
q0 -23 -16 -39.5t-39 -16.5q-20 0 -26 -3q-4 -1 -6 -3z" />
            <glyph glyph-name="g" unicode="g" horiz-adv-x="660" d="M540 248v-1v-186q0 -99 -70.5 -169.5t-169.5 -70.5q-57 0 -105 25q-20 9 -27 30.5t3 41.5t30.5 27t41.5 -2q26 -14 57 -14q48 0 84.5 30.5t46.5 76.5q-58 -40 -131 -40q-100 0 -170 76q-70 72 -70 176q0 101 70 178q71 74 170 74q76 0 134 -42q4 18 19 30t34 12
q22 0 37.5 -15.5t15.5 -37.5v-199zM395 145q38 40 38 103q0 61 -38 102q-40 43 -95 43t-92 -43q-40 -40 -40 -102q0 -65 40 -103q36 -41 92 -41t95 41z" />
            <glyph glyph-name="h" unicode="h" d="M204 281v-226q0 -23 -16.5 -39t-39.5 -16q-18 0 -33 11.5t-20 29.5q-2 8 -2 14v590q0 23 16 39t39 16t39.5 -16t16.5 -39v-174q55 29 107 29q90 0 154 -64.5t64 -154.5v-226q0 -23 -16 -39t-39 -16t-39 16t-16 39v226q0 44 -31.5 75.5t-76.5 32.5q-44 -1 -75 -32.5
t-32 -75.5z" />
            <glyph glyph-name="i" unicode="i" horiz-adv-x="281" d="M148 499q23 0 38.5 -15.5t15.5 -39.5v-390q0 -23 -15.5 -38.5t-38.5 -15.5q-22 0 -38 16t-16 38v390q0 24 15.5 39.5t38.5 15.5zM202 646v-21q0 -23 -15.5 -39t-38.5 -16q-22 0 -38 16t-16 39v21q0 22 16 38t38 16q23 0 38.5 -15.5t15.5 -38.5z" />
            <glyph glyph-name="j" unicode="j" horiz-adv-x="249" d="M106 569q-22 0 -38.5 16.5t-16.5 38.5v20q0 24 16 39.5t39 15.5t38.5 -15.5t15.5 -39.5v-20q0 -22 -16 -38.5t-38 -16.5zM50 -177q-24 0 -39.5 15.5t-15.5 39.5q0 22 15.5 37.5t39.5 15.5v514q0 23 16 39t38 16q23 0 38.5 -16t15.5 -39v-514q0 -44 -31.5 -76t-76.5 -32z
" />
            <glyph glyph-name="k" unicode="k" horiz-adv-x="560" d="M148 0q-23 0 -39 16t-16 39v590q0 23 16 39t39 16t39.5 -16t16.5 -39v-346l205 205q16 16 39 16t39 -16q17 -16 17 -39t-17 -39l-150 -150l154 -185q14 -18 12 -41t-20 -37q-14 -13 -35 -13q-27 0 -42 20l-147 178l-55 -55v-88q0 -23 -16.5 -39t-39.5 -16z" />
            <glyph glyph-name="l" unicode="l" horiz-adv-x="249" d="M100 645q0 23 16 39t39 16t39.5 -16t16.5 -39v-590q0 -23 -16.5 -39t-39.5 -16t-39 16t-16 39v590z" />
            <glyph glyph-name="m" unicode="m" horiz-adv-x="951" d="M615 393q-42 0 -72 -29t-32 -71v-3v-237q0 -22 -15.5 -37.5t-37.5 -15.5v0q-21 0 -37.5 16t-16.5 37v237v3q-1 41 -31 70.5t-72 29.5q-41 0 -71 -30t-30 -73v-237q0 -1 -0.5 -3.5t-0.5 -3.5v-3l-3 -6v-5q-16 -32 -50 -32q-2 0 -5.5 0.5t-4.5 0.5q-19 5 -31 19t-12 33v237
v1v155q0 23 15.5 38.5t37.5 15.5q35 0 48 -30q51 30 107 30q96 0 157 -69q59 69 157 69q86 0 147 -61.5t61 -148.5v-237q0 -22 -15.5 -37.5t-37.5 -15.5t-38 15.5t-16 37.5v237q0 43 -30 73t-71 30z" />
            <glyph glyph-name="n" unicode="n" d="M301 500q87 0 148 -61.5t61 -146.5v-239q0 -22 -15 -37.5t-37 -15.5q-21 0 -37 15.5t-16 37.5v239q0 42 -30.5 71.5t-73.5 29.5q-42 0 -71 -29.5t-29 -71.5v-239q0 -6 -2 -10q-4 -18 -19 -30.5t-34 -12.5q-22 0 -37.5 15.5t-15.5 37.5v239v155q0 22 15.5 37.5t37.5 15.5
q34 0 49 -31q49 31 106 31z" />
            <glyph glyph-name="o" unicode="o" horiz-adv-x="625" d="M311 -3q-99 0 -172 76q-69 71 -69 176q0 98 69 175q73 76 172 76q101 0 167 -76q70 -75 70 -175q0 -108 -70 -176q-66 -76 -167 -76zM215 353q-36 -42 -36 -104t36 -106q39 -37 96 -37q53 0 92 37q39 44 39 106t-39 104q-43 38 -92 38q-53 0 -96 -38z" />
            <glyph glyph-name="p" unicode="p" horiz-adv-x="660" d="M146 -188q-21 0 -37 16.5t-16 37.5v382v1v198q0 22 15.5 37.5t37.5 15.5q21 0 36.5 -12t18.5 -29q63 41 136 41q100 0 171 -74t71 -177t-71 -175.5t-171 -72.5q-77 0 -134 41v-176q0 -21 -16.5 -37.5t-40.5 -16.5zM242 350q-39 -39 -39 -101q0 -65 39 -100q38 -42 95 -42
q55 0 94 42q39 39 39 100q0 57 -39 101q-39 41 -94 41q-57 0 -95 -41z" />
            <glyph glyph-name="q" unicode="q" horiz-adv-x="660" d="M492 -187q-23 0 -39 16t-16 37v176q-61 -42 -134 -42q-101 0 -172 73t-71 177q0 103 71 176.5t172 73.5q70 0 136 -42q3 18 18 30t35 12q22 0 38 -16t16 -38v-196v-1v-383q0 -21 -16 -37t-38 -16zM396 349q-37 43 -93 43q-53 0 -94 -43q-41 -41 -41 -99q0 -60 41 -101
q39 -42 94 -42q59 0 93 42q41 38 41 101q0 61 -41 99z" />
            <glyph glyph-name="r" unicode="r" horiz-adv-x="439" d="M348 499q22 0 37.5 -15t15.5 -37q0 -21 -15.5 -37t-37.5 -16q-35 0 -60 -19q-26 -16 -46 -48q-21 -28 -41 -84v-190q0 -22 -16 -37.5t-39 -15.5q-22 0 -37.5 15.5t-15.5 37.5v394q0 22 15.5 37t37.5 15q23 0 39 -15t16 -37v-7q11 13 21 20q60 40 126 39z" />
            <glyph glyph-name="s" unicode="s" horiz-adv-x="492" d="M76 69q-16 13 -18.5 35.5t11.5 38.5q13 18 36 20t39 -12q54 -45 110 -44q38 0 68 19q18 15 18 30q0 6 -3 10q-2 5 -13 12q-24 17 -80 28v0h-1q-53 10 -87 26q-45 22 -69 58q-17 28 -17 63q0 65 59 110q54 37 123 37q70 0 150 -55v0q18 -12 22.5 -33.5t-6.5 -40.5
q-12 -18 -33.5 -22.5t-40.5 8.5q-56 37 -92 37q-37 0 -60 -18q-16 -11 -16 -23q0 -5 2 -8q3 -5 11 -10q22 -15 73 -24l1 -1h1q53 -10 93 -29q48 -21 71 -59q19 -32 19 -66q0 -71 -63 -116q-58 -40 -130 -40q-93 1 -178 69z" />
            <glyph glyph-name="t" unicode="t" horiz-adv-x="400" d="M262 500q23 0 39.5 -16t16.5 -39q0 -22 -16.5 -38.5t-39.5 -16.5h-25v-279q23 0 39 -16.5t16 -39.5t-16 -39t-39 -16q-46 0 -78.5 32.5t-32.5 78.5v279h-29q-23 0 -39 16t-16 39t16 39t39 16h29v145q0 23 16.5 39t39.5 16t39 -16t16 -39v-145h25z" />
            <glyph glyph-name="u" unicode="u" d="M502 208q0 -85 -62.5 -146.5t-148.5 -61.5q-85 0 -146.5 61t-61.5 147v239q0 21 15.5 37t37.5 16t37.5 -16t15.5 -37v-239q0 -43 29.5 -72.5t72.5 -29.5t73.5 29.5t31.5 72.5v239q0 21 15 37t37 16q21 0 37.5 -16t16.5 -37v-239z" />
            <glyph glyph-name="v" unicode="v" horiz-adv-x="582" d="M459 488q21 -9 29.5 -28.5t-0.5 -39.5l-164 -388q-2 -4 -4 -7l-1 -1q-1 -1 -3 -3.5t-3 -3.5l-1 -1l-2 -2l-2 -2l-2 -2q-1 0 -1 -1q-4 -4 -7 -5h-2v-1q-4 0 -8 -2h-2q-4 -1 -10 -1q-5 0 -9 1h-2q-6 2 -8 2v1h-2q-2 1 -4.5 2.5t-4.5 2.5l-1 1l-6 6q-1 0 -2 1q-2 4 -5 7
q-1 0 -1 1q-2 1 -4 7l-162 388q-9 20 -0.5 39.5t29.5 28.5q18 9 38 0t29 -29l115 -272l116 272q8 20 27.5 29t39.5 0z" />
            <glyph glyph-name="w" unicode="w" horiz-adv-x="861" d="M707 489q21 -9 29.5 -29t-0.5 -40l-165 -388q0 -1 -1 -2l-3 -6l-1 -1q-1 -2 -5 -6l-2 -1q-4 -4 -6 -5q0 -1 -0.5 -1t-0.5 -1q-7 -4 -9 -5q-1 0 -1 -1q-2 0 -8 -2h-2q-3 -1 -10 -1v0v0q-6 0 -9 1h-2q-4 2 -7 2l-1 1h-1q-4 2 -9 6v1q-1 1 -6 5q-2 0 -2 1q-4 4 -5 6
q-1 0 -1 1q-1 1 -1.5 2.5t-1.5 3t-1 2.5l-73 173l-71 -173q-1 -2 -5 -8v-1l-6 -6l-1 -1l-6 -6q-7 -5 -9 -6h-2q-1 0 -1 -1q-4 0 -6 -2h-2q-4 -1 -10 -1q-7 0 -10 1h-3q-4 2 -6 2q-1 1 -2 1q-6 2 -9 6q-1 0 -1 1q-3 3 -6 5l-2 1q-1 1 -2.5 3t-1.5 3q-1 0 -1 1q-1 1 -2.5 4
t-2.5 4l-164 388q-9 20 -0.5 40t29.5 29q18 8 38 -0.5t28 -29.5l118 -269l70 167q14 32 49 32q36 0 49 -32l71 -167l118 269q7 21 27.5 29.5t39.5 0.5z" />
            <glyph glyph-name="x" unicode="x" horiz-adv-x="570" d="M444 483q16 -12 19.5 -33.5t-9.5 -37.5l-119 -164l119 -165q13 -17 9.5 -39t-19.5 -33t-32 -11q-22 0 -44 22l-100 137l-100 -137q-19 -22 -41 -22q-18 0 -32 11q-17 11 -20.5 33.5t9.5 38.5l120 165l-120 164q-13 16 -9.5 37.5t20.5 33.5q18 13 38.5 9.5t34.5 -20.5
l100 -134l100 134q14 17 35.5 20.5t40.5 -9.5z" />
            <glyph glyph-name="y" unicode="y" horiz-adv-x="588" d="M416 500q22 0 38 -15.5t16 -37.5v-236v-142q0 -100 -69.5 -169.5t-169.5 -69.5q-53 0 -103 25q-21 9 -28 29.5t2 41.5q10 18 31.5 25t39.5 -3q30 -14 58 -14q44 1 78.5 26.5t46.5 64.5q-42 -24 -95 -24q-86 0 -147.5 62t-61.5 148v236q0 22 15.5 37.5t36.5 15.5
q23 0 38 -15t15 -38v-236q0 -43 30.5 -72.5t73.5 -29.5t73 29.5t30 72.5v236q0 23 15 38t37 15z" />
            <glyph glyph-name="z" unicode="z" horiz-adv-x="554" d="M445 417v-1l-226 -310h184q21 0 37 -15.5t16 -37.5t-16 -37.5t-37 -15.5h-289v0q-6 0 -10 1h-3q-4 2 -6 2l-4 2q-1 0 -2 1t-2 1q-1 1 -1 2l-1 1q-1 0 -1 1q-1 0 -3 2l-4 3q-2 3 -4 5q-1 2 -3 4q-2 1 -2 4q-3 1 -3 5l-2 5q0 1 -0.5 2t-0.5 2v7q-1 1 -1 3v1q0 1 0.5 3.5
t0.5 3.5v4q1 1 1 2q1 2 1 3v3l1 2l3 3q0 2 3 5h1l225 311h-183q-21 0 -37 15.5t-16 37.5t16 37.5t37 15.5h289q1 0 3 -0.5t3 -0.5h5q1 0 2.5 -0.5t2.5 -1.5q1 0 3 -1h2l3 -3l6 -3l1 -1q2 0 2 -2l5 -5l3 -3q1 -2 3 -4t3 -2q0 -2 1 -3.5t1 -2.5q1 -1 1 -5q0 -1 0.5 -2.5
t1.5 -2.5v-6q0 -1 0.5 -2t0.5 -2v-1l-1 -5q0 -4 -1 -6q0 -3 -1 -5q0 -4 -3 -5v-3z" />
            <glyph glyph-name="braceleft" unicode="{" horiz-adv-x="480" d="M394 -135q-111 24 -153.5 70t-42.5 124q0 7 1 35t1 37q0 55 -22 81t-72 27q-24 1 -37.5 14.5t-13.5 33.5t13.5 33.5t37.5 14.5q51 2 72.5 27.5t21.5 81.5q0 9 -1 37t-1 35q0 77 42.5 123t153.5 70q23 5 39 -7t16 -34q0 -32 -28 -41q-69 -21 -90 -48t-21 -81
q0 -10 1 -36.5t1 -37.5q0 -56 -26 -88t-78 -49q53 -17 78.5 -49t25.5 -88q0 -11 -1 -37.5t-1 -36.5q0 -54 21 -81t90 -48q28 -9 28 -41q0 -22 -16 -34t-39 -7z" />
            <glyph glyph-name="bar" unicode="|" horiz-adv-x="286" d="M121 -85v840q0 20 14 34t34 14t34.5 -14t14.5 -34v-840q0 -20 -14.5 -34t-34.5 -14t-34 14t-14 34z" />
            <glyph glyph-name="braceright" unicode="}" horiz-adv-x="480" d="M108 709q111 -24 153.5 -70t42.5 -123q0 -7 -1 -35t-1 -37q0 -56 22 -81.5t73 -27.5q23 -1 36.5 -14.5t13.5 -33.5t-13.5 -33.5t-36.5 -14.5q-51 -1 -73 -27t-22 -81q0 -9 1 -37t1 -35q0 -78 -42.5 -124t-153.5 -70q-23 -5 -39 7t-16 34q0 32 29 41q69 21 89.5 48
t20.5 81q0 10 -1 36.5t-1 37.5q0 56 26 88t78 49q-53 17 -78.5 49t-25.5 88q0 11 1 37.5t1 36.5q0 54 -20.5 81t-89.5 48q-29 9 -29 41q0 22 16 34t39 7z" />
            <glyph glyph-name="asciitilde" unicode="~" horiz-adv-x="460" d="M154 247q-11 -20 -32 -20q-15 0 -26 10t-11 24t4 22q17 46 40 68.5t62 22.5q30 0 79 -19.5t64 -19.5q30 0 47 31q11 21 32 21q15 0 26 -10.5t11 -23.5q0 -14 -4 -23q-17 -46 -40 -68.5t-62 -22.5q-30 0 -79 20t-64 20q-30 0 -47 -32z" />
            <glyph glyph-name="exclamdown" unicode="&#xa1;" horiz-adv-x="252" d="M148 514q23 0 38.5 -16t15.5 -39v-404q0 -23 -16 -39t-38 -16t-38.5 16t-16.5 39v404q0 23 16 39t39 16zM202 645v-20q0 -23 -16 -39t-38 -16t-38.5 16t-16.5 39v20q0 23 16 39t39 16t38.5 -16t15.5 -39z" />
            <glyph glyph-name="cent" unicode="&#xa2;" horiz-adv-x="581" d="M418 183q17 14 39 11t38 -22q12 -16 9 -38t-20 -37q-74 -54 -162 -54q-45 0 -85 14l-23 -54q-14 -33 -51 -33q-12 0 -20 4q-22 8 -30.5 29.5t0.5 42.5l29 69q-80 75 -80 182q0 106 76.5 180.5t183.5 75.5h4l32 76q9 21 30 29.5t43 -0.5q20 -8 28.5 -29.5t-0.5 -41.5
l-25 -59q30 -15 50 -31q17 -13 20 -36t-9 -39q-16 -19 -37.5 -21.5t-39.5 11.5q-8 6 -26 16l-113 -271q19 -6 43 -6q52 0 96 32zM170 297q0 -37 19 -70l88 210q-47 -14 -77 -53t-30 -87z" />
            <glyph glyph-name="sterling" unicode="&#xa3;" horiz-adv-x="644" d="M66 43q0 33 33 44l51 15v176h-32q-22 0 -37 15t-15 37q0 21 15 36.5t37 15.5h32v92q0 112 62 174q60 62 168 62q119 0 195 -81q19 -19 19 -44t-17.5 -42.5t-43.5 -17.5q-27 0 -44 19q-49 52 -107 52q-44 0 -74 -28q-33 -35 -33 -97v-89h202q21 0 36.5 -15.5t15.5 -36.5
q0 -22 -15.5 -37t-36.5 -15h-202v-171h276q23 0 38.5 -15.5t15.5 -38.5q0 -22 -15.5 -37.5t-38.5 -15.5h-438q-21 0 -34 12.5t-13 30.5z" />
            <glyph glyph-name="yen" unicode="&#xa5;" horiz-adv-x="686" d="M405 264v-73h154q18 0 31 -13t13 -32q0 -18 -13 -31t-31 -13h-154v-48q0 -25 -17 -42t-42 -17t-42 17t-17 42v48h-154q-18 0 -31 13t-13 31q0 19 13 32t31 13h154v73h-154q-18 0 -31 13t-13 31q0 19 13 32t31 13h119l-184 252q-15 21 -15 42q0 24 17.5 41t43.5 17
q35 0 58 -34l175 -261l177 260q23 35 56 35q25 0 42 -15.5t17 -41.5q0 -23 -15 -43l-186 -252h121q18 0 31 -13t13 -32q0 -18 -13 -31t-31 -13h-154z" />
            <glyph glyph-name="section" unicode="&#xa7;" horiz-adv-x="632" />
            <glyph glyph-name="dieresis" unicode="&#xa8;" horiz-adv-x="500" d="M133 636q0 27 18.5 46t45.5 19t46 -19t19 -46t-19 -45.5t-46 -18.5t-45.5 18.5t-18.5 45.5zM333 636q0 27 18.5 46t45.5 19t46 -19t19 -46t-19 -45.5t-46 -18.5t-45.5 18.5t-18.5 45.5z" />
            <glyph glyph-name="copyright" unicode="&#xa9;" horiz-adv-x="830" d="M414 -12q-151 0 -256 105.5t-105 254.5v2q0 149 106 255.5t257 106.5t256 -105.5t105 -254.5v-2q0 -149 -106 -255.5t-257 -106.5zM414 24q138 0 231.5 95.5t93.5 230.5v2q0 135 -93 229.5t-230 94.5q-138 0 -231.5 -95.5t-93.5 -230.5v-2q0 -135 93 -229.5t230 -94.5z
M419 159q-82 0 -137 56t-55 138v2q0 82 55 139t139 57q77 0 130 -43q16 -11 16 -30q0 -16 -10.5 -26.5t-25.5 -10.5q-11 0 -24 10q-41 32 -86 32q-50 0 -84 -37t-34 -90v-2q0 -52 34 -89.5t84 -37.5t92 36q11 9 22 9q14 0 24.5 -10.5t10.5 -24.5q0 -16 -11 -25
q-61 -53 -140 -53z" />
            <glyph glyph-name="ordfeminine" unicode="&#xaa;" horiz-adv-x="390" d="M347 669v-120v0v-118q0 -14 -9.5 -23.5t-23.5 -9.5q-12 0 -20.5 7.5t-10.5 19.5q-37 -27 -81 -27q-59 0 -103 46q-41 43 -41 105q0 64 41 107q45 45 103 45q44 0 81 -26q5 26 31 26q14 0 23.5 -9.5t9.5 -22.5zM259 486q23 26 23 63q0 38 -23 63q-22 24 -57 24t-56 -24
q-23 -23 -23 -63q0 -38 23 -63q25 -23 56 -23q30 0 57 23zM99 296q-14 0 -24 10t-10 24t10 24t24 10h218q14 0 23.5 -10t9.5 -24t-9.5 -24t-23.5 -10h-218z" />
            <glyph glyph-name="guillemotleft" unicode="&#xab;" horiz-adv-x="515" d="M492 42q-26 0 -42 21l-129 166q-15 20 -15 35q0 17 15 35l126 163q17 24 45 24q21 0 35 -14.5t14 -35.5q0 -18 -14 -34l-105 -137l107 -140q13 -16 13 -33q-1 -21 -15 -35.5t-35 -14.5zM240 42q-26 0 -42 21l-129 166q-14 19 -14 35q0 18 14 35l126 163q19 24 46 24
q20 0 34 -15t14 -35q0 -17 -13 -34l-106 -137l108 -140q12 -15 12 -33q0 -21 -14.5 -35.5t-35.5 -14.5z" />
            <glyph glyph-name="registered" unicode="&#xae;" horiz-adv-x="416" d="M208 360q-73 0 -123.5 51t-50.5 123v1q0 72 51 123.5t123 51.5q73 0 123.5 -51t50.5 -123v-1q0 -72 -51 -123.5t-123 -51.5zM208 379q65 0 109.5 46t44.5 110v1q0 64 -44.5 109.5t-109.5 45.5t-109.5 -46t-44.5 -110v-1q0 -64 44.5 -109.5t109.5 -45.5zM275 463
q8 -2 11 -10q5 -15 -11 -20l-2 -1h-4q-6 0 -12 3q-5 3 -9 10q-6 13 -6 36q-2 9 -4 12q-3 5 -9 9q-5 3 -16 7h-34v-64q0 -7 -5 -11.5t-12 -4.5q-16 0 -16 16v173q0 16 16 16v0h53q26 0 44 -18.5t18 -44.5q0 -28 -23 -48q8 -6 11 -11q9 -14 9 -31q0 -5 0.5 -11t0.5 -7z
M215 541q12 0 21 9t9 21q0 13 -9 21.5t-21 8.5h-36v-60h36z" />
            <glyph glyph-name="degree" unicode="&#xb0;" horiz-adv-x="450" d="M241 381q-66 0 -116.5 48.5t-50.5 113.5v2q0 65 50.5 113t116.5 48t116 -48t50 -113v-2q0 -65 -50 -113.5t-116 -48.5zM241 447q40 0 67 28.5t27 67.5v2q0 39 -27 67t-67 28q-41 0 -68 -28t-27 -67v-2q0 -39 27.5 -67.5t67.5 -28.5z" />
            <glyph glyph-name="acute" unicode="&#xb4;" horiz-adv-x="500" d="M231 590q-30 0 -30 21q0 10 8 22l57 88q18 29 48 29q25 0 48.5 -12.5t23.5 -26.5q0 -15 -17 -30l-67 -64q-29 -27 -71 -27z" />
            <glyph glyph-name="cedilla" unicode="&#xb8;" horiz-adv-x="500" d="M340 10l-61 -141q-12 -29 -39 -29q-20 0 -45 14.5t-25 29.5q0 12 8 23l71 103h91z" />
            <glyph glyph-name="guillemotright" unicode="&#xbb;" horiz-adv-x="515" d="M504 42q-26 0 -42 21l-129 166q-15 20 -15 35q0 17 15 35l126 163q17 24 45 24q21 0 35 -14.5t14 -35.5q0 -18 -14 -34l-105 -137l107 -140q13 -16 13 -33q-1 -21 -15 -35.5t-35 -14.5zM252 42q-26 0 -42 21l-129 166q-14 19 -14 35q0 18 14 35l126 163q19 24 46 24
q20 0 34 -15t14 -35q0 -17 -13 -34l-106 -137l108 -140q12 -15 12 -33q0 -21 -14.5 -35.5t-35.5 -14.5z" />
            <glyph glyph-name="questiondown" unicode="&#xbf;" horiz-adv-x="534" d="M247 584q-20 0 -34.5 14.5t-14.5 34.5v18q0 21 14.5 35t34.5 14q21 0 35 -14t14 -35v-18q0 -20 -14 -34.5t-35 -14.5zM458 210q0 -87 -62 -148.5t-149 -61.5q-57 0 -105.5 28.5t-75.5 75.5q-10 18 -5 37t22 30q18 10 37.5 5t30.5 -23q32 -55 96 -55q47 0 80.5 32.5
t33.5 79.5q0 46 -33.5 79t-80.5 33q-19 0 -34 15t-15 34q0 1 1 2q0 1 -0.5 1t-0.5 1v104q0 21 14.5 35t34.5 14q21 0 35 -14t14 -35v-65q70 -17 116 -73.5t46 -130.5z" />
            <glyph glyph-name="Agrave" unicode="&#xc0;" horiz-adv-x="649" d="M510 35l-49 130h-243l-49 -130q-14 -35 -52 -35q-10 0 -19 3q-22 8 -31.5 29t-1.5 43l221 589q7 16 21.5 26t31.5 9q38 2 53 -35l221 -589q8 -22 -1.5 -43t-31.5 -29q-8 -3 -19 -3q-38 0 -51 35zM258 275h162l-81 215zM400 790q-42 0 -70 27l-68 64q-17 15 -17 30
q0 14 23.5 26.5t48.5 12.5q30 0 48 -29l57 -88q9 -13 9 -22q0 -21 -31 -21z" />
            <glyph glyph-name="Aacute" unicode="&#xc1;" horiz-adv-x="646" d="M510 35l-49 130h-243l-49 -130q-14 -35 -52 -35q-10 0 -19 3q-22 8 -31.5 29t-1.5 43l221 589q7 16 21.5 26t31.5 9q38 2 53 -35l221 -589q8 -22 -1.5 -43t-31.5 -29q-8 -3 -19 -3q-38 0 -51 35zM258 275h162l-81 215zM279 790q-30 0 -30 21q0 10 8 22l57 88q18 29 48 29
q25 0 48.5 -12.5t23.5 -26.5q0 -15 -17 -30l-67 -64q-29 -27 -71 -27z" />
            <glyph glyph-name="Acircumflex" unicode="&#xc2;" horiz-adv-x="664" d="M511 35l-49 130h-243l-49 -130q-14 -35 -52 -35q-10 0 -19 3q-22 8 -31.5 29t-1.5 43l221 589q7 16 21.5 26t31.5 9q38 2 53 -35l221 -589q8 -22 -1.5 -43t-31.5 -29q-7 -3 -19 -3q-38 0 -51 35zM259 275h162l-81 215zM339 862l-52 -45q-32 -27 -74 -27q-27 0 -27 20
q0 8 12 24l66 83q24 29 58 29h36q35 0 58 -29l66 -83q12 -16 12 -24q0 -20 -29 -20q-41 0 -74 27z" />
            <glyph glyph-name="Atilde" unicode="&#xc3;" horiz-adv-x="664" d="M511 35l-49 130h-243l-49 -130q-14 -35 -52 -35q-10 0 -19 3q-22 8 -31.5 29t-1.5 43l221 589q7 16 21.5 26t31.5 9q38 2 53 -35l221 -589q8 -22 -1.5 -43t-31.5 -29q-7 -3 -19 -3q-38 0 -51 35zM259 275h162l-81 215zM228 803q-13 -20 -33 -20q-15 0 -26 10t-11 23
q0 9 4 23q17 46 40.5 68.5t61.5 22.5q30 0 79 -20t65 -20q29 0 46 32q13 20 33 20q15 0 26 -10t11 -23q0 -9 -4 -23q-17 -46 -40.5 -68.5t-61.5 -22.5q-30 0 -79 20t-65 20q-29 0 -46 -32z" />
            <glyph glyph-name="Adieresis" unicode="&#xc4;" horiz-adv-x="663" d="M511 35l-49 130h-243l-49 -130q-14 -35 -52 -35q-10 0 -19 3q-22 8 -31.5 29t-1.5 43l221 589q7 16 21.5 26t31.5 9q38 2 53 -35l221 -589q8 -22 -1.5 -43t-31.5 -29q-7 -3 -19 -3q-38 0 -51 35zM259 275h162l-81 215zM177 836q0 27 18.5 46t45.5 19t46 -19t19 -46
t-19 -45.5t-46 -18.5t-45.5 18.5t-18.5 45.5zM377 836q0 27 18.5 46t45.5 19t46 -19t19 -46t-19 -45.5t-46 -18.5t-45.5 18.5t-18.5 45.5z" />
            <glyph glyph-name="Aring" unicode="&#xc5;" horiz-adv-x="646" d="M246 275h162l-81 215zM498 35l-49 130h-243l-49 -130q-14 -35 -52 -35q-10 0 -19 3q-22 8 -31.5 29t-1.5 43l207 553q-62 38 -62 104v2q0 50 38.5 86.5t89.5 36.5t89.5 -36.5t38.5 -86.5v-2q0 -66 -61 -103l208 -554q8 -22 -1.5 -43t-31.5 -29q-8 -3 -19 -3q-38 0 -51 35
zM326 685q20 0 34 13.5t14 33.5v2q0 20 -14 33.5t-34 13.5t-34 -13.5t-14 -33.5v-2q0 -20 14 -33.5t34 -13.5z" />
            <glyph glyph-name="AE" unicode="&#xc6;" horiz-adv-x="1045" d="M35 45q0 20 10 35l337 577q24 43 72 43h481q23 0 39 -16t16 -39t-16 -39t-39 -16h-324v-182h279q23 0 39 -16.5t16 -39.5q0 -22 -16 -38t-39 -16h-279v-188h329q22 0 38.5 -16t16.5 -39t-16 -39t-39 -16h-390q-26 0 -44 18t-18 44v107h-264l-81 -141q-20 -34 -54 -34
q-23 0 -38.5 14.5t-15.5 36.5zM287 278h201v315h-20z" />
            <glyph glyph-name="Ccedilla" unicode="&#xc7;" horiz-adv-x="771" d="M440 0q-150 0 -258 105.5t-109 254.5q1 148 109 253.5t258 106.5q131 0 231 -78q18 -15 21 -38t-11 -42q-15 -19 -39 -22t-41 11q-67 55 -161 55q-103 0 -180 -72q-73 -75 -73 -174q0 -103 73 -174q77 -72 180 -72q92 0 161 55q17 13 41 10t39 -21q14 -19 11 -42.5
t-21 -37.5q-100 -78 -231 -78zM470 10l-61 -141q-12 -29 -39 -29q-20 0 -45 14.5t-25 29.5q0 12 8 23l71 103h91z" />
            <glyph glyph-name="Egrave" unicode="&#xc8;" horiz-adv-x="593" d="M159 0q-23 0 -39 16t-16 39v590q0 23 16 39t39 16h1h2h324q22 0 38.5 -16t16.5 -39t-16.5 -39.5t-38.5 -16.5h-271v-183h233q22 0 38.5 -16.5t16.5 -38.5q0 -23 -16 -39.5t-39 -16.5h-233v-184h271q22 0 38.5 -16.5t16.5 -39.5q0 -22 -16.5 -38.5t-38.5 -16.5h-324l-2 1z
M387 790q-42 0 -70 27l-68 64q-17 15 -17 30q0 14 23.5 26.5t48.5 12.5q30 0 48 -29l57 -88q9 -13 9 -22q0 -21 -31 -21z" />
            <glyph glyph-name="Eacute" unicode="&#xc9;" horiz-adv-x="593" d="M159 0q-23 0 -39 16t-16 39v590q0 23 16 39t39 16h1h2h324q22 0 38.5 -16t16.5 -39t-16.5 -39.5t-38.5 -16.5h-271v-183h233q22 0 38.5 -16.5t16.5 -38.5q0 -23 -16 -39.5t-39 -16.5h-233v-184h271q22 0 38.5 -16.5t16.5 -39.5q0 -22 -16.5 -38.5t-38.5 -16.5h-324l-2 1z
M262 790q-30 0 -30 21q0 10 8 22l57 88q18 29 48 29q25 0 48.5 -12.5t23.5 -26.5q0 -15 -17 -30l-67 -64q-29 -27 -71 -27z" />
            <glyph glyph-name="Ecircumflex" unicode="&#xca;" horiz-adv-x="593" d="M159 0q-23 0 -39 16t-16 39v590q0 23 16 39t39 16h1h2h324q22 0 38.5 -16t16.5 -39t-16.5 -39.5t-38.5 -16.5h-271v-183h233q22 0 38.5 -16.5t16.5 -38.5q0 -23 -16 -39.5t-39 -16.5h-233v-184h271q22 0 38.5 -16.5t16.5 -39.5q0 -22 -16.5 -38.5t-38.5 -16.5h-324l-2 1z
M322 862l-52 -45q-32 -27 -74 -27q-27 0 -27 20q0 8 12 24l66 83q24 29 58 29h36q35 0 58 -29l66 -83q12 -16 12 -24q0 -20 -29 -20q-41 0 -74 27z" />
            <glyph glyph-name="Edieresis" unicode="&#xcb;" horiz-adv-x="670" d="M159 0q-23 0 -39 16t-16 39v590q0 23 16 39t39 16h1h2h324q22 0 38.5 -16t16.5 -39t-16.5 -39.5t-38.5 -16.5h-271v-183h233q22 0 38.5 -16.5t16.5 -38.5q0 -23 -16 -39.5t-39 -16.5h-233v-184h271q22 0 38.5 -16.5t16.5 -39.5q0 -22 -16.5 -38.5t-38.5 -16.5h-324l-2 1z
M159 836q0 27 18.5 46t45.5 19t46 -19t19 -46t-19 -45.5t-46 -18.5t-45.5 18.5t-18.5 45.5zM359 836q0 27 18.5 46t45.5 19t46 -19t19 -46t-19 -45.5t-46 -18.5t-45.5 18.5t-18.5 45.5z" />
            <glyph glyph-name="Igrave" unicode="&#xcc;" horiz-adv-x="348" d="M161 55q0 -23 16 -39t39 -16t39.5 16t16.5 39v590q0 23 -16.5 39t-39.5 16t-39 -16t-16 -39v-590zM278 790q-42 0 -70 27l-68 64q-17 15 -17 30q0 14 23.5 26.5t48.5 12.5q30 0 48 -29l57 -88q9 -13 9 -22q0 -21 -31 -21z" />
            <glyph glyph-name="Iacute" unicode="&#xcd;" horiz-adv-x="274" d="M83 55q0 -23 16 -39t39 -16t39.5 16t16.5 39v590q0 23 -16.5 39t-39.5 16t-39 -16t-16 -39v-590zM77 790q-30 0 -30 21q0 10 8 22l57 88q18 29 48 29q25 0 48.5 -12.5t23.5 -26.5q0 -15 -17 -30l-67 -64q-29 -27 -71 -27z" />
            <glyph glyph-name="Icircumflex" unicode="&#xce;" horiz-adv-x="274" d="M102 55q0 -23 16 -39t39 -16t39.5 16t16.5 39v590q0 23 -16.5 39t-39.5 16t-39 -16t-16 -39v-590zM155 862l-52 -45q-32 -27 -74 -27q-27 0 -27 20q0 8 12 24l66 83q24 29 58 29h36q35 0 58 -29l66 -83q12 -16 12 -24q0 -20 -29 -20q-41 0 -74 27z" />
            <glyph glyph-name="Idieresis" unicode="&#xcf;" horiz-adv-x="274" d="M102 55q0 -23 16 -39t39 -16t39.5 16t16.5 39v590q0 23 -16.5 39t-39.5 16t-39 -16t-16 -39v-590zM-8 836q0 27 18.5 46t45.5 19t46 -19t19 -46t-19 -45.5t-46 -18.5t-45.5 18.5t-18.5 45.5zM192 836q0 27 18.5 46t45.5 19t46 -19t19 -46t-19 -45.5t-46 -18.5t-45.5 18.5
t-18.5 45.5z" />
            <glyph glyph-name="Eth" unicode="&#xd0;" horiz-adv-x="812" d="M114 293q-24 0 -41.5 17.5t-17.5 41.5q0 25 17.5 42.5t41.5 17.5h37v233q0 23 16 39t39 16h118q145 0 247 -102.5t102 -246.5q0 -146 -102 -248.5t-247 -102.5h-118q-23 0 -39 16t-16 39v238h-37zM262 589v-177h40q24 0 41.5 -17.5t17.5 -42.5q0 -24 -17.5 -41.5
t-41.5 -17.5h-40v-182h62q99 1 168.5 70.5t69.5 169.5q0 98 -69.5 168t-168.5 70h-62z" />
            <glyph glyph-name="Ntilde" unicode="&#xd1;" horiz-adv-x="790" d="M214 470v-415q0 -22 -16 -38.5t-38 -16.5q-23 0 -39 16t-16 39v581v1q-2 29 22 46q19 13 41 9.5t35 -21.5l323 -447v412q0 22 16 38t38 16t38.5 -16t16.5 -38v-581q0 -23 -16.5 -39t-38.5 -16q-24 0 -41 20q-4 4 -5 6zM257 803q-13 -20 -33 -20q-15 0 -26 10t-11 23
q0 9 4 23q17 46 40.5 68.5t61.5 22.5q30 0 79 -20t65 -20q29 0 46 32q13 20 33 20q15 0 26 -10t11 -23q0 -9 -4 -23q-17 -46 -40.5 -68.5t-61.5 -22.5q-30 0 -79 20t-65 20q-29 0 -46 -32z" />
            <glyph glyph-name="Ograve" unicode="&#xd2;" horiz-adv-x="850" d="M417 720q68 0 131 -28.5t108 -78.5q101 -108 101 -253q0 -147 -101 -253q-45 -50 -108 -78.5t-131 -28.5q-71 0 -134.5 28.5t-110.5 78.5q-99 104 -99 253q0 148 99 253q99 107 245 107zM575 186q68 71 68 174q0 102 -68 175q-66 71 -158 71q-96 0 -162 -71
q-68 -71 -68 -175t68 -174q67 -72 162 -72q91 0 158 72zM480 790q-42 0 -70 27l-68 64q-17 15 -17 30q0 14 23.5 26.5t48.5 12.5q30 0 48 -29l57 -88q9 -13 9 -22q0 -21 -31 -21z" />
            <glyph glyph-name="Oacute" unicode="&#xd3;" horiz-adv-x="850" d="M417 720q68 0 131 -28.5t108 -78.5q101 -108 101 -253q0 -147 -101 -253q-45 -50 -108 -78.5t-131 -28.5q-71 0 -134.5 28.5t-110.5 78.5q-99 104 -99 253q0 148 99 253q99 107 245 107zM575 186q68 71 68 174q0 102 -68 175q-66 71 -158 71q-96 0 -162 -71
q-68 -71 -68 -175t68 -174q67 -72 162 -72q91 0 158 72zM356 790q-30 0 -30 21q0 10 8 22l57 88q18 29 48 29q25 0 48.5 -12.5t23.5 -26.5q0 -15 -17 -30l-67 -64q-29 -27 -71 -27z" />
            <glyph glyph-name="Ocircumflex" unicode="&#xd4;" horiz-adv-x="850" d="M417 720q68 0 131 -28.5t108 -78.5q101 -108 101 -253q0 -147 -101 -253q-45 -50 -108 -78.5t-131 -28.5q-71 0 -134.5 28.5t-110.5 78.5q-99 104 -99 253q0 148 99 253q99 107 245 107zM575 186q68 71 68 174q0 102 -68 175q-66 71 -158 71q-96 0 -162 -71
q-68 -71 -68 -175t68 -174q67 -72 162 -72q91 0 158 72zM414 862l-52 -45q-32 -27 -74 -27q-27 0 -27 20q0 8 12 24l66 83q24 29 58 29h36q35 0 58 -29l66 -83q12 -16 12 -24q0 -20 -29 -20q-41 0 -74 27z" />
            <glyph glyph-name="Otilde" unicode="&#xd5;" horiz-adv-x="850" d="M417 720q68 0 131 -28.5t108 -78.5q101 -108 101 -253q0 -147 -101 -253q-45 -50 -108 -78.5t-131 -28.5q-71 0 -134.5 28.5t-110.5 78.5q-99 104 -99 253q0 148 99 253q99 107 245 107zM575 186q68 71 68 174q0 102 -68 175q-66 71 -158 71q-96 0 -162 -71
q-68 -71 -68 -175t68 -174q67 -72 162 -72q91 0 158 72zM303 803q-13 -20 -33 -20q-15 0 -26 10t-11 23q0 9 4 23q17 46 40.5 68.5t61.5 22.5q30 0 79 -20t65 -20q29 0 46 32q13 20 33 20q15 0 26 -10t11 -23q0 -9 -4 -23q-17 -46 -40.5 -68.5t-61.5 -22.5q-30 0 -79 20
t-65 20q-29 0 -46 -32z" />
            <glyph glyph-name="Odieresis" unicode="&#xd6;" horiz-adv-x="850" d="M417 720q68 0 131 -28.5t108 -78.5q101 -108 101 -253q0 -147 -101 -253q-45 -50 -108 -78.5t-131 -28.5q-71 0 -134.5 28.5t-110.5 78.5q-99 104 -99 253q0 148 99 253q99 107 245 107zM575 186q68 71 68 174q0 102 -68 175q-66 71 -158 71q-96 0 -162 -71
q-68 -71 -68 -175t68 -174q67 -72 162 -72q91 0 158 72zM251 836q0 27 18.5 46t45.5 19t46 -19t19 -46t-19 -45.5t-46 -18.5t-45.5 18.5t-18.5 45.5zM451 836q0 27 18.5 46t45.5 19t46 -19t19 -46t-19 -45.5t-46 -18.5t-45.5 18.5t-18.5 45.5z" />
            <glyph glyph-name="multiply" unicode="&#xd7;" horiz-adv-x="620" d="M524 481l-130 -128l131 -128q17 -17 17 -40t-16 -38.5t-38 -15.5t-40 16l-128 132l-129 -131q-15 -17 -39 -17q-22 0 -37 15t-15 37q0 24 18 40l130 128l-132 128q-16 18 -16 40q0 23 16 38.5t38 15.5q23 0 40 -17l128 -131l129 131q15 17 38 17t38 -15.5t15 -37.5
q0 -23 -18 -39z" />
            <glyph glyph-name="Oslash" unicode="&#xd8;" horiz-adv-x="850" d="M438 -12q-124 0 -218 67l-48 -48q-15 -17 -38 -17q-19 0 -31 11.5t-12 28.5q0 20 17 37l47 49q-82 99 -82 232v2q0 150 104 256t263 106q125 0 218 -68l48 49q17 17 38 17q18 0 30.5 -11.5t12.5 -27.5q0 -21 -17 -38l-47 -49q82 -99 82 -232v-2q0 -150 -104 -256
t-263 -106zM200 350q0 -79 42 -143l334 349q-61 45 -138 45q-103 0 -170.5 -72.5t-67.5 -176.5v-2zM440 99q103 0 170.5 72.5t67.5 176.5v2q0 77 -42 143l-335 -350q61 -44 139 -44z" />
            <glyph glyph-name="Ugrave" unicode="&#xd9;" horiz-adv-x="760" d="M671 289q0 -119 -84.5 -204t-204.5 -85t-204.5 84.5t-84.5 204.5v356q0 23 16 39t39 16t39.5 -16t16.5 -39v-356q0 -73 52 -125.5t126 -52.5t126 52t52 126v356q0 23 16.5 39t39.5 16t39 -16t16 -39v-356zM444 790q-42 0 -70 27l-68 64q-17 15 -17 30q0 14 23.5 26.5
t48.5 12.5q30 0 48 -29l57 -88q9 -13 9 -22q0 -21 -31 -21z" />
            <glyph glyph-name="Uacute" unicode="&#xda;" horiz-adv-x="760" d="M671 289q0 -119 -84.5 -204t-204.5 -85t-204.5 84.5t-84.5 204.5v356q0 23 16 39t39 16t39.5 -16t16.5 -39v-356q0 -73 52 -125.5t126 -52.5t126 52t52 126v356q0 23 16.5 39t39.5 16t39 -16t16 -39v-356zM320 790q-30 0 -30 21q0 10 8 22l57 88q18 29 48 29
q25 0 48.5 -12.5t23.5 -26.5q0 -15 -17 -30l-67 -64q-29 -27 -71 -27z" />
            <glyph glyph-name="Ucircumflex" unicode="&#xdb;" horiz-adv-x="760" d="M671 289q0 -119 -84.5 -204t-204.5 -85t-204.5 84.5t-84.5 204.5v356q0 23 16 39t39 16t39.5 -16t16.5 -39v-356q0 -73 52 -125.5t126 -52.5t126 52t52 126v356q0 23 16.5 39t39.5 16t39 -16t16 -39v-356zM380 862l-52 -45q-32 -27 -74 -27q-27 0 -27 20q0 8 12 24l66 83
q24 29 58 29h36q35 0 58 -29l66 -83q12 -16 12 -24q0 -20 -29 -20q-41 0 -74 27z" />
            <glyph glyph-name="Udieresis" unicode="&#xdc;" horiz-adv-x="760" d="M671 289q0 -119 -84.5 -204t-204.5 -85t-204.5 84.5t-84.5 204.5v356q0 23 16 39t39 16t39.5 -16t16.5 -39v-356q0 -73 52 -125.5t126 -52.5t126 52t52 126v356q0 23 16.5 39t39.5 16t39 -16t16 -39v-356zM216 836q0 27 18.5 46t45.5 19t46 -19t19 -46t-19 -45.5
t-46 -18.5t-45.5 18.5t-18.5 45.5zM416 836q0 27 18.5 46t45.5 19t46 -19t19 -46t-19 -45.5t-46 -18.5t-45.5 18.5t-18.5 45.5z" />
            <glyph glyph-name="Yacute" unicode="&#xdd;" horiz-adv-x="716" d="M579 682q18 -13 21.5 -35.5t-9.5 -40.5l-205 -281v-270q0 -23 -16 -39t-39 -16q-22 0 -38.5 16t-16.5 39v270l-203 281q-14 18 -11 40t22 36t41 10.5t35 -22.5l171 -234l171 234q14 19 36.5 22.5t40.5 -10.5zM303 790q-30 0 -30 21q0 10 8 22l57 88q18 29 48 29
q25 0 48.5 -12.5t23.5 -26.5q0 -15 -17 -30l-67 -64q-29 -27 -71 -27z" />
            <glyph glyph-name="germandbls" unicode="&#xdf;" horiz-adv-x="620" d="M308 47q0 38 43 48q116 18 116 104v2q0 77 -115 106q-44 13 -44 53q0 33 26 50q92 51 92 126v2q0 43 -27.5 69.5t-73.5 26.5q-50 0 -81 -35t-31 -93v-452q0 -25 -17.5 -42t-43.5 -17q-25 0 -42 17t-17 42v448q0 109 64 172t174 63q99 0 157.5 -53.5t58.5 -134.5v-2
q0 -110 -111 -171q152 -51 152 -178v-2q0 -92 -66.5 -144.5t-158.5 -54.5q-25 0 -40 14t-15 36z" />
            <glyph glyph-name="agrave" unicode="&#xe0;" horiz-adv-x="574" d="M539 446v-197v0v-196q0 -22 -15.5 -37.5t-37.5 -15.5q-19 0 -33 12t-19 31q-61 -43 -133 -43q-100 0 -170 73q-68 73 -68 176q0 105 68 176q70 75 170 75q71 0 133 -44q5 19 19 31.5t33 12.5q22 0 37.5 -16t15.5 -38zM394 146q39 42 39 103q0 62 -39 103q-36 41 -93 41
q-58 0 -93 -41q-38 -40 -38 -103q0 -62 38 -103q36 -39 93 -39q56 0 93 39zM387 570q-42 0 -70 27l-68 64q-17 15 -17 30q0 14 23.5 26.5t48.5 12.5q30 0 48 -29l57 -88q9 -13 9 -22q0 -21 -31 -21z" />
            <glyph glyph-name="aacute" unicode="&#xe1;" horiz-adv-x="574" d="M539 446v-197v0v-196q0 -22 -15.5 -37.5t-37.5 -15.5q-19 0 -33 12t-19 31q-61 -43 -133 -43q-100 0 -170 73q-68 73 -68 176q0 105 68 176q70 75 170 75q71 0 133 -44q5 19 19 31.5t33 12.5q22 0 37.5 -16t15.5 -38zM394 146q39 42 39 103q0 62 -39 103q-36 41 -93 41
q-58 0 -93 -41q-38 -40 -38 -103q0 -62 38 -103q36 -39 93 -39q56 0 93 39zM353 570q-30 0 -30 21q0 10 8 22l57 88q18 29 48 29q25 0 48.5 -12.5t23.5 -26.5q0 -15 -17 -30l-67 -64q-29 -27 -71 -27z" />
            <glyph glyph-name="acircumflex" unicode="&#xe2;" horiz-adv-x="574" d="M539 446v-197v0v-196q0 -22 -15.5 -37.5t-37.5 -15.5q-19 0 -33 12t-19 31q-61 -43 -133 -43q-100 0 -170 73q-68 73 -68 176q0 105 68 176q70 75 170 75q71 0 133 -44q5 19 19 31.5t33 12.5q22 0 37.5 -16t15.5 -38zM394 146q39 42 39 103q0 62 -39 103q-36 41 -93 41
q-58 0 -93 -41q-38 -40 -38 -103q0 -62 38 -103q36 -39 93 -39q56 0 93 39zM300 642l-52 -45q-32 -27 -74 -27q-27 0 -27 20q0 8 12 24l66 83q24 29 58 29h36q35 0 58 -29l66 -83q12 -16 12 -24q0 -20 -29 -20q-41 0 -74 27z" />
            <glyph glyph-name="atilde" unicode="&#xe3;" horiz-adv-x="574" d="M539 446v-197v0v-196q0 -22 -15.5 -37.5t-37.5 -15.5q-19 0 -33 12t-19 31q-61 -43 -133 -43q-100 0 -170 73q-68 73 -68 176q0 105 68 176q70 75 170 75q71 0 133 -44q5 19 19 31.5t33 12.5q22 0 37.5 -16t15.5 -38zM394 146q39 42 39 103q0 62 -39 103q-36 41 -93 41
q-58 0 -93 -41q-38 -40 -38 -103q0 -62 38 -103q36 -39 93 -39q56 0 93 39zM188 590q-13 -20 -33 -20q-15 0 -26 10t-11 23q0 9 4 23q17 46 40.5 68.5t61.5 22.5q30 0 79 -20t65 -20q29 0 46 32q13 20 33 20q15 0 26 -10t11 -23q0 -9 -4 -23q-17 -46 -40.5 -68.5
t-61.5 -22.5q-30 0 -79 20t-65 20q-29 0 -46 -32z" />
            <glyph glyph-name="adieresis" unicode="&#xe4;" horiz-adv-x="574" d="M539 446v-197v0v-196q0 -22 -15.5 -37.5t-37.5 -15.5q-19 0 -33 12t-19 31q-61 -43 -133 -43q-100 0 -170 73q-68 73 -68 176q0 105 68 176q70 75 170 75q71 0 133 -44q5 19 19 31.5t33 12.5q22 0 37.5 -16t15.5 -38zM394 146q39 42 39 103q0 62 -39 103q-36 41 -93 41
q-58 0 -93 -41q-38 -40 -38 -103q0 -62 38 -103q36 -39 93 -39q56 0 93 39zM137 634q0 27 18.5 46t45.5 19t46 -19t19 -46t-19 -45.5t-46 -18.5t-45.5 18.5t-18.5 45.5zM337 634q0 27 18.5 46t45.5 19t46 -19t19 -46t-19 -45.5t-46 -18.5t-45.5 18.5t-18.5 45.5z" />
            <glyph glyph-name="aring" unicode="&#xe5;" horiz-adv-x="574" d="M290 570q-51 0 -89.5 37t-38.5 86v2q0 50 38.5 86.5t89.5 36.5t89.5 -36.5t38.5 -86.5v-2q0 -49 -38.5 -86t-89.5 -37zM290 646q20 0 34 13.5t14 33.5v2q0 20 -14 33.5t-34 13.5t-34 -13.5t-14 -33.5v-2q0 -20 14 -33.5t34 -13.5zM527 446v-197v0v-196q0 -22 -15.5 -37.5
t-37.5 -15.5q-19 0 -33 12t-19 31q-61 -43 -133 -43q-100 0 -170 73q-68 73 -68 176q0 105 68 176q70 75 170 75q71 0 133 -44q5 19 19 31.5t33 12.5q22 0 37.5 -16t15.5 -38zM382 146q39 42 39 103q0 62 -39 103q-36 41 -93 41q-58 0 -93 -41q-38 -40 -38 -103
q0 -62 38 -103q36 -39 93 -39q56 0 93 39z" />
            <glyph glyph-name="ae" unicode="&#xe6;" horiz-adv-x="954" d="M705 0q-96 0 -168 67v-13q0 -22 -16 -38t-38 -16q-20 0 -34 12.5t-19 31.5q-61 -44 -136 -44q-102 0 -174 75q-69 75 -69 179q0 106 69 180q71 76 174 76q72 0 136 -44q5 19 19 31.5t34 12.5q22 0 38 -16t16 -39v-12q72 67 168 67q100 0 170 -67t76 -169v-6q0 -7 -1 -9
q-2 -18 -17 -29.5t-36 -11.5h-325q9 -43 35 -67q16 -18 43.5 -31t54.5 -15q67 -5 106 26q16 16 41 16t36 -13q12 -14 13.5 -31t-13.5 -36q-73 -67 -183 -67zM389 149q40 45 40 105q0 63 -40 105q-37 42 -95 42q-59 0 -95 -42q-39 -41 -39 -105q0 -61 39 -105q38 -40 95 -40
q55 0 95 40zM705 413q-59 -3 -95 -36.5t-43 -71.5h289q-9 36 -49.5 69.5t-101.5 38.5z" />
            <glyph glyph-name="ccedilla" unicode="&#xe7;" horiz-adv-x="571" d="M312 0q-104 0 -179 73.5t-75 175.5q0 104 75 177t179 74q87 0 159 -55q17 -13 20 -35.5t-9 -38.5q-15 -18 -36.5 -21t-38.5 11q-44 32 -95 32q-60 0 -104 -43t-44 -101t43.5 -100.5t104.5 -42.5q51 0 95 32q16 13 38 10t37 -21q12 -16 9 -37.5t-20 -36.5
q-74 -53 -159 -53zM370 10l-61 -141q-12 -29 -39 -29q-20 0 -45 14.5t-25 29.5q0 12 8 23l71 103h91z" />
            <glyph glyph-name="egrave" unicode="&#xe8;" horiz-adv-x="609" d="M302 0q-102 1 -172.5 74t-71.5 176q1 103 71.5 176.5t172.5 73.5q98 0 166.5 -65.5t74.5 -166.5v-5v0q0 -7 -1 -9q-2 -18 -16.5 -29t-35.5 -11h-318q9 -43 34 -66q35 -40 96 -45q64 -5 104 25q15 16 40 16t35 -13q12 -13 13.5 -30t-13.5 -35q-72 -66 -179 -66zM302 405
q-58 -3 -93 -36t-42 -70h283q-9 35 -48.5 68t-99.5 38zM361 570q-42 0 -70 27l-68 64q-17 15 -17 30q0 14 23.5 26.5t48.5 12.5q30 0 48 -29l57 -88q9 -13 9 -22q0 -21 -31 -21z" />
            <glyph glyph-name="eacute" unicode="&#xe9;" horiz-adv-x="609" d="M302 0q-102 1 -172.5 74t-71.5 176q1 103 71.5 176.5t172.5 73.5q98 0 166.5 -65.5t74.5 -166.5v-5v0q0 -7 -1 -9q-2 -18 -16.5 -29t-35.5 -11h-318q9 -43 34 -66q35 -40 96 -45q64 -5 104 25q15 16 40 16t35 -13q12 -13 13.5 -30t-13.5 -35q-72 -66 -179 -66zM302 405
q-58 -3 -93 -36t-42 -70h283q-9 35 -48.5 68t-99.5 38zM237 570q-30 0 -30 21q0 10 8 22l57 88q18 29 48 29q25 0 48.5 -12.5t23.5 -26.5q0 -15 -17 -30l-67 -64q-29 -27 -71 -27z" />
            <glyph glyph-name="ecircumflex" unicode="&#xea;" horiz-adv-x="609" d="M302 0q-102 1 -172.5 74t-71.5 176q1 103 71.5 176.5t172.5 73.5q98 0 166.5 -65.5t74.5 -166.5v-5v0q0 -7 -1 -9q-2 -18 -16.5 -29t-35.5 -11h-318q9 -43 34 -66q35 -40 96 -45q64 -5 104 25q15 16 40 16t35 -13q12 -13 13.5 -30t-13.5 -35q-72 -66 -179 -66zM302 405
q-58 -3 -93 -36t-42 -70h283q-9 35 -48.5 68t-99.5 38zM300 642l-52 -45q-32 -27 -74 -27q-27 0 -27 20q0 8 12 24l66 83q24 29 58 29h36q35 0 58 -29l66 -83q12 -16 12 -24q0 -20 -29 -20q-41 0 -74 27z" />
            <glyph glyph-name="edieresis" unicode="&#xeb;" horiz-adv-x="584" d="M305 0q-102 1 -172.5 74t-71.5 176q1 103 71.5 176.5t172.5 73.5q98 0 166.5 -65.5t74.5 -166.5v-5v0q0 -7 -1 -9q-2 -18 -16.5 -29t-35.5 -11h-318q9 -43 34 -66q35 -40 96 -45q64 -5 104 25q15 16 40 16t35 -13q12 -13 13.5 -30t-13.5 -35q-72 -66 -179 -66zM305 405
q-58 -3 -93 -36t-42 -70h283q-9 35 -48.5 68t-99.5 38zM139 634q0 27 18.5 46t45.5 19t46 -19t19 -46t-19 -45.5t-46 -18.5t-45.5 18.5t-18.5 45.5zM339 634q0 27 18.5 46t45.5 19t46 -19t19 -46t-19 -45.5t-46 -18.5t-45.5 18.5t-18.5 45.5z" />
            <glyph glyph-name="igrave" unicode="&#xec;" horiz-adv-x="281" d="M118 499q23 0 38.5 -15.5t15.5 -39.5v-390q0 -23 -15.5 -38.5t-38.5 -15.5q-22 0 -38 16t-16 38v390q0 24 15.5 39.5t38.5 15.5zM179 570q-42 0 -70 27l-68 64q-17 15 -17 30q0 14 23.5 26.5t48.5 12.5q30 0 48 -29l57 -88q9 -13 9 -22q0 -21 -31 -21z" />
            <glyph glyph-name="iacute" unicode="&#xed;" horiz-adv-x="281" d="M104 499q23 0 38.5 -15.5t15.5 -39.5v-390q0 -23 -15.5 -38.5t-38.5 -15.5q-22 0 -38 16t-16 38v390q0 24 15.5 39.5t38.5 15.5zM44 570q-30 0 -30 21q0 10 8 22l57 88q18 29 48 29q25 0 48.5 -12.5t23.5 -26.5q0 -15 -17 -30l-67 -64q-29 -27 -71 -27z" />
            <glyph glyph-name="icircumflex" unicode="&#xee;" horiz-adv-x="281" d="M163 499q23 0 38.5 -15.5t15.5 -39.5v-390q0 -23 -15.5 -38.5t-38.5 -15.5t-38.5 16t-15.5 38v390q0 24 15.5 39.5t38.5 15.5zM162 642l-52 -45q-32 -27 -74 -27q-27 0 -27 20q0 8 12 24l66 83q24 29 58 29h36q35 0 58 -29l66 -83q12 -16 12 -24q0 -20 -29 -20
q-41 0 -74 27z" />
            <glyph glyph-name="idieresis" unicode="&#xef;" horiz-adv-x="281" d="M159 499q23 0 38.5 -15.5t15.5 -39.5v-390q0 -23 -15.5 -38.5t-38.5 -15.5t-38.5 16t-15.5 38v390q0 24 15.5 39.5t38.5 15.5zM-6 634q0 27 18.5 46t45.5 19t46 -19t19 -46t-19 -45.5t-46 -18.5t-45.5 18.5t-18.5 45.5zM194 634q0 27 18.5 46t45.5 19t46 -19t19 -46
t-19 -45.5t-46 -18.5t-45.5 18.5t-18.5 45.5z" />
            <glyph glyph-name="eth" unicode="&#xf0;" horiz-adv-x="628" d="M429 445l-104 143l-109 -48q-8 -3 -17 -3q-16 0 -27 11t-11 27q0 26 27 36l91 40q-10 14 -10 32q0 23 16 39t39 16q29 0 48 -27l11 -16l87 38q12 4 17 4q16 0 27 -11.5t11 -27.5q0 -26 -26 -36l-72 -31l90 -128q46 -67 66.5 -123t20.5 -121q0 -114 -75.5 -192.5
t-201.5 -78.5q-115 0 -192 76t-77 185q0 105 66 171t166 66q71 0 139 -41zM485 247q0 63 -44 106.5t-113 43.5q-68 0 -109.5 -42.5t-41.5 -108.5q0 -64 44 -109.5t111 -45.5q68 0 110.5 45t42.5 111z" />
            <glyph glyph-name="ntilde" unicode="&#xf1;" d="M302 500q87 0 148 -61.5t61 -146.5v-239q0 -22 -15 -37.5t-37 -15.5q-21 0 -37 15.5t-16 37.5v239q0 42 -30.5 71.5t-73.5 29.5q-42 0 -71 -29.5t-29 -71.5v-239q0 -6 -2 -10q-4 -18 -19 -30.5t-34 -12.5q-22 0 -37.5 15.5t-15.5 37.5v239v155q0 22 15.5 37.5t37.5 15.5
q34 0 49 -31q49 31 106 31zM189 590q-13 -20 -33 -20q-15 0 -26 10t-11 23q0 9 4 23q17 46 40.5 68.5t61.5 22.5q30 0 79 -20t65 -20q29 0 46 32q13 20 33 20q15 0 26 -10t11 -23q0 -9 -4 -23q-17 -46 -40.5 -68.5t-61.5 -22.5q-30 0 -79 20t-65 20q-29 0 -46 -32z" />
            <glyph glyph-name="ograve" unicode="&#xf2;" horiz-adv-x="640" d="M299 -3q-99 0 -172 76q-69 71 -69 176q0 98 69 175q73 76 172 76q101 0 167 -76q70 -75 70 -175q0 -108 -70 -176q-66 -76 -167 -76zM203 353q-36 -42 -36 -104t36 -106q39 -37 96 -37q53 0 92 37q39 44 39 106t-39 104q-43 38 -92 38q-53 0 -96 -38zM359 570
q-42 0 -70 27l-68 64q-17 15 -17 30q0 14 23.5 26.5t48.5 12.5q30 0 48 -29l57 -88q9 -13 9 -22q0 -21 -31 -21z" />
            <glyph glyph-name="oacute" unicode="&#xf3;" horiz-adv-x="640" d="M299 -3q-99 0 -172 76q-69 71 -69 176q0 98 69 175q73 76 172 76q101 0 167 -76q70 -75 70 -175q0 -108 -70 -176q-66 -76 -167 -76zM203 353q-36 -42 -36 -104t36 -106q39 -37 96 -37q53 0 92 37q39 44 39 106t-39 104q-43 38 -92 38q-53 0 -96 -38zM232 570
q-30 0 -30 21q0 10 8 22l57 88q18 29 48 29q25 0 48.5 -12.5t23.5 -26.5q0 -15 -17 -30l-67 -64q-29 -27 -71 -27z" />
            <glyph glyph-name="ocircumflex" unicode="&#xf4;" horiz-adv-x="640" d="M299 -3q-99 0 -172 76q-69 71 -69 176q0 98 69 175q73 76 172 76q101 0 167 -76q70 -75 70 -175q0 -108 -70 -176q-66 -76 -167 -76zM203 353q-36 -42 -36 -104t36 -106q39 -37 96 -37q53 0 92 37q39 44 39 106t-39 104q-43 38 -92 38q-53 0 -96 -38zM296 642l-52 -45
q-32 -27 -74 -27q-27 0 -27 20q0 8 12 24l66 83q24 29 58 29h36q35 0 58 -29l66 -83q12 -16 12 -24q0 -20 -29 -20q-41 0 -74 27z" />
            <glyph glyph-name="otilde" unicode="&#xf5;" horiz-adv-x="640" d="M299 -3q-99 0 -172 76q-69 71 -69 176q0 98 69 175q73 76 172 76q101 0 167 -76q70 -75 70 -175q0 -108 -70 -176q-66 -76 -167 -76zM203 353q-36 -42 -36 -104t36 -106q39 -37 96 -37q53 0 92 37q39 44 39 106t-39 104q-43 38 -92 38q-53 0 -96 -38zM184 590
q-13 -20 -33 -20q-15 0 -26 10t-11 23q0 9 4 23q17 46 40.5 68.5t61.5 22.5q30 0 79 -20t65 -20q29 0 46 32q13 20 33 20q15 0 26 -10t11 -23q0 -9 -4 -23q-17 -46 -40.5 -68.5t-61.5 -22.5q-30 0 -79 20t-65 20q-29 0 -46 -32z" />
            <glyph glyph-name="odieresis" unicode="&#xf6;" horiz-adv-x="640" d="M299 -3q-99 0 -172 76q-69 71 -69 176q0 98 69 175q73 76 172 76q101 0 167 -76q70 -75 70 -175q0 -108 -70 -176q-66 -76 -167 -76zM203 353q-36 -42 -36 -104t36 -106q39 -37 96 -37q53 0 92 37q39 44 39 106t-39 104q-43 38 -92 38q-53 0 -96 -38zM133 634
q0 27 18.5 46t45.5 19t46 -19t19 -46t-19 -45.5t-46 -18.5t-45.5 18.5t-18.5 45.5zM333 634q0 27 18.5 46t45.5 19t46 -19t19 -46t-19 -45.5t-46 -18.5t-45.5 18.5t-18.5 45.5z" />
            <glyph glyph-name="divide" unicode="&#xf7;" horiz-adv-x="620" d="M520 300h-404q-22 0 -37 15.5t-15 36.5t15 36.5t37 15.5h404q22 0 37 -15.5t15 -36.5t-15 -36.5t-37 -15.5zM318 629q28 0 48.5 -19.5t20.5 -46.5v-5q0 -28 -20 -47.5t-49 -19.5t-49 19.5t-20 47.5v5q0 27 20.5 46.5t48.5 19.5zM318 213q29 0 49 -19.5t20 -47.5v-5
q0 -28 -20 -47t-49 -19t-49 19t-20 47v5q0 28 20 47.5t49 19.5z" />
            <glyph glyph-name="oslash" unicode="&#xf8;" horiz-adv-x="640" d="M604 494q12 -9 9.5 -25t-17.5 -31l-50 -45q37 -62 37 -136q0 -109 -71 -180q-67 -77 -172 -77q-92 0 -162 64l-34 -30q-27 -23 -55 -19q-9 2 -14 5q-13 9 -10.5 25.5t18.5 32.5l49 43q-37 60 -37 136q0 103 70 179q72 77 175 77q93 0 160 -64l34 31q17 14 37.5 18
t32.5 -4zM205 257q0 -32 11 -60l202 179q-35 27 -78 27q-55 0 -96 -41q-39 -44 -39 -105zM475 257q0 33 -12 62l-204 -182q37 -27 81 -27q54 0 94 40q41 46 41 107z" />
            <glyph glyph-name="ugrave" unicode="&#xf9;" d="M502 208q0 -85 -62.5 -146.5t-148.5 -61.5q-85 0 -146.5 61t-61.5 147v239q0 21 15.5 37t37.5 16t37.5 -16t15.5 -37v-239q0 -43 29.5 -72.5t72.5 -29.5t73.5 29.5t31.5 72.5v239q0 21 15 37t37 16q21 0 37.5 -16t16.5 -37v-239zM355 570q-42 0 -70 27l-68 64
q-17 15 -17 30q0 14 23.5 26.5t48.5 12.5q30 0 48 -29l57 -88q9 -13 9 -22q0 -21 -31 -21z" />
            <glyph glyph-name="uacute" unicode="&#xfa;" d="M502 208q0 -85 -62.5 -146.5t-148.5 -61.5q-85 0 -146.5 61t-61.5 147v239q0 21 15.5 37t37.5 16t37.5 -16t15.5 -37v-239q0 -43 29.5 -72.5t72.5 -29.5t73.5 29.5t31.5 72.5v239q0 21 15 37t37 16q21 0 37.5 -16t16.5 -37v-239zM228 570q-30 0 -30 21q0 10 8 22l57 88
q18 29 48 29q25 0 48.5 -12.5t23.5 -26.5q0 -15 -17 -30l-67 -64q-29 -27 -71 -27z" />
            <glyph glyph-name="ucircumflex" unicode="&#xfb;" d="M502 208q0 -85 -62.5 -146.5t-148.5 -61.5q-85 0 -146.5 61t-61.5 147v239q0 21 15.5 37t37.5 16t37.5 -16t15.5 -37v-239q0 -43 29.5 -72.5t72.5 -29.5t73.5 29.5t31.5 72.5v239q0 21 15 37t37 16q21 0 37.5 -16t16.5 -37v-239zM292 642l-52 -45q-32 -27 -74 -27
q-27 0 -27 20q0 8 12 24l66 83q24 29 58 29h36q35 0 58 -29l66 -83q12 -16 12 -24q0 -20 -29 -20q-41 0 -74 27z" />
            <glyph glyph-name="udieresis" unicode="&#xfc;" d="M502 208q0 -85 -62.5 -146.5t-148.5 -61.5q-85 0 -146.5 61t-61.5 147v239q0 21 15.5 37t37.5 16t37.5 -16t15.5 -37v-239q0 -43 29.5 -72.5t72.5 -29.5t73.5 29.5t31.5 72.5v239q0 21 15 37t37 16q21 0 37.5 -16t16.5 -37v-239zM128 633q0 27 18.5 46t45.5 19t46 -19
t19 -46t-19 -45.5t-46 -18.5t-45.5 18.5t-18.5 45.5zM328 633q0 27 18.5 46t45.5 19t46 -19t19 -46t-19 -45.5t-46 -18.5t-45.5 18.5t-18.5 45.5z" />
            <glyph glyph-name="yacute" unicode="&#xfd;" horiz-adv-x="588" d="M416 500q22 0 38 -15.5t16 -37.5v-236v-142q0 -100 -69.5 -169.5t-169.5 -69.5q-53 0 -103 25q-21 9 -28 29.5t2 41.5q10 18 31.5 25t39.5 -3q30 -14 58 -14q44 1 78.5 26.5t46.5 64.5q-42 -24 -95 -24q-86 0 -147.5 62t-61.5 148v236q0 22 15.5 37.5t36.5 15.5
q23 0 38 -15t15 -38v-236q0 -43 30.5 -72.5t73.5 -29.5t73 29.5t30 72.5v236q0 23 15 38t37 15zM218 570q-30 0 -30 21q0 10 8 22l57 88q18 29 48 29q25 0 48.5 -12.5t23.5 -26.5q0 -15 -17 -30l-67 -64q-29 -27 -71 -27z" />
            <glyph glyph-name="thorn" unicode="&#xfe;" horiz-adv-x="660" />
            <glyph glyph-name="ydieresis" unicode="&#xff;" horiz-adv-x="588" d="M416 500q22 0 38 -15.5t16 -37.5v-236v-142q0 -100 -69.5 -169.5t-169.5 -69.5q-53 0 -103 25q-21 9 -28 29.5t2 41.5q10 18 31.5 25t39.5 -3q30 -14 58 -14q44 1 78.5 26.5t46.5 64.5q-42 -24 -95 -24q-86 0 -147.5 62t-61.5 148v236q0 22 15.5 37.5t36.5 15.5
q23 0 38 -15t15 -38v-236q0 -43 30.5 -72.5t73.5 -29.5t73 29.5t30 72.5v236q0 23 15 38t37 15zM96 634q0 27 18.5 46t45.5 19t46 -19t19 -46t-19 -45.5t-46 -18.5t-45.5 18.5t-18.5 45.5zM296 634q0 27 18.5 46t45.5 19t46 -19t19 -46t-19 -45.5t-46 -18.5t-45.5 18.5
t-18.5 45.5z" />
            <glyph glyph-name="OE" unicode="&#x152;" horiz-adv-x="1443" d="M715 0q-23 0 -39 16t-16 39v56l-4 -4q-45 -50 -108 -78.5t-131 -28.5q-71 0 -134.5 28.5t-110.5 78.5q-99 104 -99 253q0 148 99 253q99 107 245 107q68 0 131 -28.5t108 -78.5q1 -2 4 -5v37q0 23 16 39t39 16h327q22 0 38.5 -16t16.5 -39t-16.5 -39.5t-38.5 -16.5h-271
v-183h233q22 0 38.5 -16.5t16.5 -38.5q0 -23 -16 -39.5t-39 -16.5h-233v-184h271q22 0 38.5 -16.5t16.5 -39.5q0 -22 -16.5 -38.5t-38.5 -16.5h-324l-2 1zM575 186q68 71 68 174q0 102 -68 175q-66 71 -158 71q-96 0 -162 -71q-68 -71 -68 -175t68 -174q67 -72 162 -72
q91 0 158 72z" />
            <glyph glyph-name="oe" unicode="&#x153;" horiz-adv-x="1055" d="M716 0q-65 0 -119.5 31t-88.5 84q-16 -24 -33 -41q-67 -77 -172 -77q-103 0 -175 77q-70 73 -70 180q0 103 70 179q72 77 175 77q105 0 172 -77q18 -20 31 -41q34 54 89 86t121 32q100 0 170 -67t76 -169v-6q0 -7 -1 -9q-2 -18 -17 -29.5t-36 -11.5h-325q9 -43 35 -67
q16 -18 43.5 -31t54.5 -15q67 -5 106 26q16 16 41 16t36 -13q12 -14 13.5 -31t-13.5 -36q-73 -67 -183 -67zM207 359q-39 -44 -39 -105q0 -62 39 -107q40 -40 96 -40q54 0 94 40q41 46 41 107t-41 105q-41 41 -94 41q-55 0 -96 -41zM716 413q-59 -3 -95 -36.5t-43 -71.5h289
q-9 36 -49.5 69.5t-101.5 38.5z" />
            <glyph glyph-name="Scaron" unicode="&#x160;" horiz-adv-x="640" d="M292 911l52 -45l52 45q33 27 74 27q29 0 29 -20q0 -8 -12 -24l-66 -83q-23 -29 -58 -29h-36q-34 0 -58 29l-66 83q-12 16 -12 24q0 20 27 20q42 0 74 -27zM90 101q-16 13 -18.5 35t10.5 38t35 18.5t38 -11.5q96 -78 191 -77q75 0 125 37q43 32 43 72q0 17 -9 32
q-10 17 -30 30q-46 30 -137 47h-2q-78 15 -129 39q-63 30 -93 78q-23 37 -23 82q0 87 80 146q73 53 173 53q44 0 90 -15t68.5 -28t59.5 -37q17 -12 21.5 -33t-7.5 -38q-11 -18 -32 -22.5t-39 7.5q-47 32 -83.5 48t-77.5 16q-66 0 -112 -34q-38 -28 -38 -63q0 -17 7 -28
q8 -13 27 -26q41 -28 125 -44h2q84 -17 138 -42q69 -34 100 -83q24 -38 24 -85q0 -93 -86 -155q-78 -57 -185 -57q-131 1 -256 100z" />
            <glyph glyph-name="scaron" unicode="&#x161;" horiz-adv-x="497" d="M218 719l52 -45l52 45q33 27 74 27q29 0 29 -20q0 -8 -12 -24l-66 -83q-23 -29 -58 -29h-36q-34 0 -58 29l-66 83q-12 16 -12 24q0 20 27 20q42 0 74 -27zM76 69q-16 13 -18.5 35.5t11.5 38.5q13 18 36 20t39 -12q54 -45 110 -44q38 0 68 19q18 15 18 30q0 6 -3 10
q-2 5 -13 12q-24 17 -80 28v0h-1q-53 10 -87 26q-45 22 -69 58q-17 28 -17 63q0 65 59 110q54 37 123 37q70 0 150 -55v0q18 -12 22.5 -33.5t-6.5 -40.5q-12 -18 -33.5 -22.5t-40.5 8.5q-56 37 -92 37q-37 0 -60 -18q-16 -11 -16 -23q0 -5 2 -8q3 -5 11 -10q22 -15 73 -24
l1 -1h1q53 -10 93 -29q48 -21 71 -59q19 -32 19 -66q0 -71 -63 -116q-58 -40 -130 -40q-93 1 -178 69z" />
            <glyph glyph-name="Ydieresis" unicode="&#x178;" horiz-adv-x="716" d="M579 682q18 -13 21.5 -35.5t-9.5 -40.5l-205 -281v-270q0 -23 -16 -39t-39 -16q-22 0 -38.5 16t-16.5 39v270l-203 281q-14 18 -11 40t22 36t41 10.5t35 -22.5l171 -234l171 234q14 19 36.5 22.5t40.5 -10.5zM166 836q0 27 18.5 46t45.5 19t46 -19t19 -46t-19 -45.5
t-46 -18.5t-45.5 18.5t-18.5 45.5zM366 836q0 27 18.5 46t45.5 19t46 -19t19 -46t-19 -45.5t-46 -18.5t-45.5 18.5t-18.5 45.5z" />
            <glyph glyph-name="florin" unicode="&#x192;" horiz-adv-x="506" d="M121 -7q-30 0 -47.5 14t-17.5 37q0 20 14 34.5t36 15.5q52 4 63 67l35 195h-34q-21 0 -36 14.5t-15 35.5t15 36t36 15h51l18 94q15 78 55.5 116.5t119.5 38.5q26 0 52 -3q19 -2 32 -16.5t13 -34.5q0 -21 -14.5 -35.5t-35.5 -14.5q-1 0 -9.5 1t-14.5 1q-35 0 -54.5 -18.5
t-26.5 -59.5l-12 -69h81q22 0 36.5 -15t14.5 -36t-14.5 -35.5t-36.5 -14.5h-99l-38 -213q-14 -79 -55 -114.5t-112 -35.5z" />
            <glyph glyph-name="circumflex" unicode="&#x2c6;" horiz-adv-x="500" d="M294 662l-52 -45q-32 -27 -74 -27q-27 0 -27 20q0 8 12 24l66 83q24 29 58 29h36q35 0 58 -29l66 -83q12 -16 12 -24q0 -20 -29 -20q-41 0 -74 27z" />
            <glyph glyph-name="tilde" unicode="&#x2dc;" horiz-adv-x="500" d="M175 603q-13 -20 -33 -20q-15 0 -26 10t-11 23q0 9 4 23q17 46 40.5 68.5t61.5 22.5q30 0 79 -20t65 -20q29 0 46 32q13 20 33 20q15 0 26 -10t11 -23q0 -9 -4 -23q-17 -46 -40.5 -68.5t-61.5 -22.5q-30 0 -79 20t-65 20q-29 0 -46 -32z" />
            <glyph glyph-name="endash" unicode="&#x2013;" horiz-adv-x="528" d="M123 249q-23 0 -40 17t-17 40q0 24 17 41t40 17h312q23 0 40 -17t17 -41q0 -23 -17 -40t-40 -17h-312z" />
            <glyph glyph-name="emdash" unicode="&#x2014;" horiz-adv-x="898" d="M123 249q-23 0 -40 17t-17 40q0 24 17 41t40 17h682q23 0 40 -17t17 -41q0 -23 -17 -40t-40 -17h-682z" />
            <glyph glyph-name="quoteleft" unicode="&#x2018;" horiz-adv-x="230" d="M252 676q0 -20 -24 -27q-71 -22 -68 -89q24 -7 40.5 -25t16.5 -43v-8q0 -29 -19 -48t-49 -19q-33 0 -52.5 24t-19.5 64v10q0 98 50 146q41 43 94 43q31 0 31 -28z" />
            <glyph glyph-name="quoteright" unicode="&#x2019;" horiz-adv-x="230" d="M59 446q0 20 23 27q71 22 68 90q-24 6 -40.5 23.5t-16.5 43.5v8q0 29 19 48t49 19q33 0 52.5 -24t19.5 -64v-10q0 -97 -49 -146q-43 -43 -94 -43q-31 0 -31 28z" />
            <glyph glyph-name="quotesinglbase" unicode="&#x201a;" horiz-adv-x="230" d="M54 -117q0 22 23 27q71 23 68 90q-24 7 -40.5 25t-16.5 43v8q0 29 19 48t49 19q34 0 53 -23.5t19 -64.5v-11q0 -95 -49 -146q-45 -43 -94 -43q-31 0 -31 28z" />
            <glyph glyph-name="quotedblleft" unicode="&#x201c;" horiz-adv-x="522" d="M468 676q0 -20 -24 -27q-71 -22 -68 -89q24 -7 40.5 -25t16.5 -43v-8q0 -29 -19 -48t-49 -19q-33 0 -52.5 24t-19.5 64v10q0 97 49 146q43 43 94 43q32 0 32 -28zM236 676q0 -20 -24 -27q-71 -22 -68 -89q24 -7 40.5 -25t16.5 -43v-8q0 -29 -19 -48t-49 -19
q-33 0 -52.5 24t-19.5 64v10q0 98 50 146q41 43 94 43q31 0 31 -28z" />
            <glyph glyph-name="quotedblright" unicode="&#x201d;" horiz-adv-x="522" d="M59 446q0 20 23 27q71 22 68 90q-24 6 -40.5 23.5t-16.5 43.5v8q0 29 19 48t49 19q33 0 52.5 -24t19.5 -64v-10q0 -97 -49 -146q-43 -43 -94 -43q-31 0 -31 28zM290 446q0 20 24 27q71 22 68 90q-24 6 -40.5 23.5t-16.5 43.5v8q0 29 19 48t49 19q33 0 52.5 -24t19.5 -64
v-10q0 -98 -50 -146q-41 -43 -94 -43q-31 0 -31 28z" />
            <glyph glyph-name="quotedblbase" unicode="&#x201e;" horiz-adv-x="410" d="M54 -117q0 22 23 27q71 23 68 90q-24 7 -40.5 25t-16.5 43v8q0 29 19 48t49 19q34 0 53 -23.5t19 -64.5v-11q0 -95 -49 -146q-45 -43 -94 -43q-31 0 -31 28zM285 -117q0 22 24 27q71 23 68 90q-24 7 -40.5 25t-16.5 43v8q0 29 19 48t49 19q33 0 52.5 -24t19.5 -64v-11
q0 -96 -50 -146q-43 -43 -94 -43q-31 0 -31 28z" />
            <glyph glyph-name="bullet" unicode="&#x2022;" horiz-adv-x="470" d="M253 211q-59 0 -100.5 41t-41.5 99v2q0 58 42 99.5t100 41.5q57 0 99 -41.5t42 -99.5v-2q0 -58 -41.5 -99t-99.5 -41z" />
            <glyph glyph-name="ellipsis" unicode="&#x2026;" horiz-adv-x="680" d="M82 67q0 31 21.5 53t52.5 22t53 -22t22 -53t-22 -52.5t-53 -21.5t-52.5 21.5t-21.5 52.5zM369 67q0 31 21.5 53t52.5 22t53 -22t22 -53t-22 -52.5t-53 -21.5t-52.5 21.5t-21.5 52.5zM656 67q0 31 21.5 53t52.5 22t53 -22t22 -53t-22 -52.5t-53 -21.5t-52.5 21.5
t-21.5 52.5z" />
            <glyph glyph-name="guilsinglleft" unicode="&#x2039;" horiz-adv-x="311" d="M241 486q21 0 35 -14.5t15 -35.5q0 -18 -13 -34l-107 -140l105 -136q14 -16 14 -34q0 -21 -14 -35.5t-35 -14.5q-28 0 -45 24l-126 162q-15 20 -15 35q0 16 15 36l129 165q17 22 42 22z" />
            <glyph glyph-name="guilsinglright" unicode="&#x203a;" horiz-adv-x="311" d="M117 486q25 0 42 -22l129 -165q15 -20 15 -36q0 -15 -15 -35l-126 -162q-17 -24 -45 -24q-21 0 -35 14.5t-14 35.5q0 18 14 34l105 136l-107 140q-13 16 -13 34q1 21 15 35.5t35 14.5z" />
            <glyph glyph-name="trademark" unicode="&#x2122;" horiz-adv-x="690" d="M251 677q0 -10 -7 -17.5t-16 -7.5h-68v-228q0 -9 -6.5 -16t-16.5 -7t-17 7t-7 16v228h-68q-10 0 -16.5 7.5t-6.5 17.5t6.5 16.5t16.5 6.5h183q9 0 16 -6.5t7 -16.5zM544 700q24 -2 24 -23v-253q0 -9 -7 -16t-17 -7t-17 7t-7 16v181l-61 -86q-8 -10 -20 -10v0
q-13 0 -20 10l-62 86v-181q0 -9 -6.5 -16t-16.5 -7q-9 0 -16 7t-7 16v253q0 10 7 16.5t16 6.5h2q11 0 19 -10l84 -118l84 118q10 10 20 10h1v0z" />
            <glyph glyph-name="percent" horiz-adv-x="824" d="M219 350q-72 0 -118 51.5t-46 125.5v2q0 75 46.5 127t119.5 52t118.5 -51.5t45.5 -125.5v-2q0 -75 -46.5 -127t-119.5 -52zM161 34q0 13 9 26l459 627q11 18 34 18q17 0 28.5 -11.5t11.5 -27.5q0 -13 -9 -26l-459 -627q-12 -18 -35 -18q-16 0 -27.5 11.5t-11.5 27.5z
M642 -8q-72 0 -118 51.5t-46 125.5v2q0 75 46.5 127t119.5 52q72 0 118 -51.5t46 -125.5v-2q0 -74 -46.5 -126.5t-119.5 -52.5zM221 427q34 0 54.5 29t20.5 71v2q0 43 -22 72.5t-55 29.5q-34 0 -54.5 -29t-20.5 -71v-2q0 -43 22 -72.5t55 -29.5zM644 69q34 0 54.5 29
t20.5 71v2q0 43 -22 72.5t-55 29.5q-34 0 -54.5 -29t-20.5 -71v-2q0 -43 22 -72.5t55 -29.5z" />
            </font>
</defs>
</svg>
